<svg id="imperaEuropeMap" xmlns="http://www.w3.org/2000/svg"
viewBox="0 0 1600 1000" preserveAspectRatio="xMidYMid meet"
role="img" aria-labelledby="mapTitle mapDescription">
<title id="mapTitle">IMPERA Avrupa Haritası</title>
<desc id="mapDescription">Gerçek coğrafi kıyı çizgilerinden üretilmiş etkileşimli Avrupa, Kuzey Afrika ve Orta Doğu haritası.</desc>
<defs>
  <linearGradient id="oceanGradient" x1="0" y1="0" x2="1" y2="1">
    <stop offset="0%" stop-color="#23475e"/>
    <stop offset="50%" stop-color="#17364a"/>
    <stop offset="100%" stop-color="#091d2a"/>
  </linearGradient>
  <linearGradient id="landGradient" x1="0" y1="0" x2="1" y2="1">
    <stop offset="0%" stop-color="#677989"/>
    <stop offset="100%" stop-color="#354654"/>
  </linearGradient>
  <linearGradient id="selectedGradient" x1="0" y1="0" x2="1" y2="1">
    <stop offset="0%" stop-color="#e6ca72"/>
    <stop offset="100%" stop-color="#886323"/>
  </linearGradient>
  <filter id="selectedGlow" x="-40%" y="-40%" width="180%" height="180%">
    <feDropShadow dx="0" dy="0" stdDeviation="7" flood-color="#f6d77e" flood-opacity="0.9"/>
  </filter>
  <style>
    .map-country-svg {
      fill: url(#landGradient);
      stroke: #c1ced6;
      stroke-width: 1.15;
      stroke-linejoin: round;
      stroke-linecap: round;
      vector-effect: non-scaling-stroke;
      cursor: pointer;
      transition: filter .15s ease, opacity .15s ease;
    }
    .map-country-svg:hover {
      filter: brightness(1.25);
    }
    .map-country-svg.selected-country-svg {
      fill: url(#selectedGradient);
      stroke: #ffe59a;
      stroke-width: 2.2;
      filter: url(#selectedGlow);
    }
    .sea-label {
      fill: #c8dce7;
      fill-opacity: .22;
      font: italic 21px Georgia, serif;
      letter-spacing: 8px;
      pointer-events: none;
    }
  </style>
</defs>
<rect width="1600" height="1000" fill="url(#oceanGradient)"/>
<g id="seaLabels">
  <text class="sea-label" x="120" y="505" transform="rotate(-10 120 505)">ATLAS OKYANUSU</text>
  <text class="sea-label" x="540" y="820" transform="rotate(-4 540 820)">AKDENİZ</text>
  <text class="sea-label" x="1080" y="610" transform="rotate(-4 1080 610)">KARADENİZ</text>
  <text class="sea-label" x="560" y="250" transform="rotate(-6 560 250)">KUZEY DENİZİ</text>
</g>
<g id="countriesLayer">
<path id="country-sovyetler-birligi" class="map-country-svg" data-country="Sovyetler Birliği" data-capital="Moskova" d="M 1203.96 624.01 L 1191.65 619.90 L 1193.24 611.84 L 1190.43 606.02 L 1174.48 597.90 L 1156.84 598.68 L 1159.31 591.61 L 1155.17 580.33 L 1145.60 574.23 L 1136.43 572.33 L 1130.37 567.26 L 1109.26 553.28 L 1090.37 547.04 L 1076.07 537.32 L 1088.12 534.67 L 1101.86 520.83 L 1092.60 514.29 L 1117.00 507.53 L 1116.56 503.92 L 1101.70 506.58 L 1088.48 507.91 L 1077.47 513.26 L 1061.97 514.13 L 1047.71 520.30 L 1048.54 529.16 L 1048.68 530.59 L 1056.78 534.58 L 1073.66 533.59 L 1070.43 539.49 L 1052.31 542.36 L 1029.83 551.93 L 1020.63 548.56 L 1024.28 540.79 L 1006.19 535.95 L 1009.11 532.77 L 1024.96 527.27 L 1022.44 525.28 L 1020.17 523.48 L 994.43 519.30 L 993.29 513.13 L 977.95 515.17 L 971.81 524.28 L 958.99 536.51 L 951.48 533.67 L 943.70 536.33 L 936.31 533.28 L 933.35 525.74 L 935.09 518.67 L 934.56 511.41 L 925.01 501.57 L 919.76 494.59 L 914.63 489.69 L 909.59 488.08 L 902.60 488.07 L 898.44 491.94 L 886.22 493.53 L 880.56 496.07 L 872.88 492.03 L 862.26 491.97 L 852.02 490.13 L 844.87 493.68 L 843.72 489.24 L 834.53 484.74 L 837.76 478.07 L 842.35 473.76 L 845.97 474.73 L 841.69 467.29 L 856.73 453.53 L 864.94 451.61 L 866.72 446.97 L 858.39 432.52 L 858.08 425.15 L 852.97 417.49 L 862.90 414.11 L 862.99 407.52 L 858.40 401.22 L 857.68 393.90 L 853.71 388.81 L 845.21 387.04 L 814.77 387.28 L 794.38 385.40 L 798.15 378.12 L 821.00 372.76 L 817.48 358.85 L 818.05 346.39 L 826.19 336.00 L 841.79 330.35 L 854.94 342.71 L 868.22 342.39 L 871.40 329.69 L 873.32 319.93 L 867.24 322.01 L 856.73 316.13 L 855.29 306.63 L 876.23 302.02 L 897.08 299.62 L 915.05 302.35 L 932.13 301.86 L 932.13 301.86 L 950.95 292.72 L 933.60 284.85 L 933.60 284.85 L 969.05 263.73 L 984.43 254.17 L 990.66 245.73 L 966.15 234.40 L 972.92 223.62 L 958.01 211.30 L 969.16 197.12 L 949.90 178.29 L 965.18 165.81 L 939.83 154.79 L 942.24 143.20 L 955.61 141.68 L 983.78 135.04 L 983.78 135.04 L 1000.86 129.28 L 1028.06 139.29 L 1073.40 143.22 L 1135.95 161.94 L 1148.66 169.80 L 1149.75 180.81 L 1131.37 189.51 L 1104.34 193.92 L 1030.43 181.34 L 1018.28 183.44 L 1045.27 195.56 L 1046.32 203.24 L 1047.40 220.14 L 1068.72 225.19 L 1081.66 229.48 L 1083.79 221.46 L 1073.82 214.35 L 1084.36 208.08 L 1124.38 218.38 L 1138.32 214.35 L 1127.18 202.23 L 1165.76 186.03 L 1181.04 186.98 L 1196.50 192.77 L 1206.15 181.40 L 1192.34 171.53 L 1200.44 161.64 L 1188.27 151.37 L 1234.58 156.68 L 1244.04 165.95 L 1223.08 167.99 L 1223.19 177.20 L 1236.22 182.86 L 1261.80 179.27 L 1265.85 168.72 L 1300.44 160.84 L 1358.21 146.63 L 1370.70 147.45 L 1354.38 157.49 L 1374.91 159.21 L 1386.77 153.56 L 1417.80 153.10 L 1442.39 146.24 L 1461.25 156.21 L 1480.07 145.25 L 1462.72 135.67 L 1471.33 130.21 L 1520.23 135.22 L 1543.15 140.39 L 1603.15 159.29 L 1614.21 150.63 L 1597.39 141.88 L 1596.91 138.37 L 1576.95 136.75 L 1582.41 128.91 L 1573.56 116.00 L 1573.06 110.70 L 1603.61 95.72 L 1614.47 80.68 L 1626.78 77.43 L 1670.62 81.79 L 1674.07 91.00 L 1658.37 104.42 L 1668.67 109.69 L 1674.00 121.26 L 1670.24 143.93 L 1688.50 154.07 L 1681.40 165.11 L 1648.97 188.61 L 1667.89 191.05 L 1674.48 185.10 L 1692.69 180.85 L 1697.09 172.66 L 1711.42 164.78 L 1701.77 155.37 L 1709.49 144.45 L 1691.39 143.09 L 1687.41 133.89 L 1700.62 117.27 L 1679.12 103.78 L 1708.75 92.63 L 1704.91 80.87 L 1713.17 80.49 L 1721.87 89.66 L 1715.34 105.63 L 1733.06 108.65 L 1725.51 96.72 L 1753.21 90.22 L 1787.57 89.34 L 1818.17 98.77 L 1803.44 84.99 L 1801.79 67.37 L 1830.58 64.03 L 1870.40 64.76 L 1906.28 62.59 L 1892.82 53.94 L 1911.98 43.07 L 1931.00 42.62 L 1963.19 34.41 L 2006.91 32.20 L 2012.43 27.67 L 2055.90 26.14 L 2069.45 29.85 L 2106.61 21.06 L 2137.02 21.34 L 2141.58 14.19 L 2157.40 7.15 L 2196.49 0.36 L 2224.88 5.72 L 2202.34 9.80 L 2239.84 12.34 L 2244.31 20.51 L 2259.44 16.49 L 2307.83 16.71 L 2345.15 24.78 L 2358.44 30.98 L 2354.32 39.58 L 2336.01 44.47 L 2292.50 53.66 L 2280.07 58.57 L 2300.60 60.88 L 2325.08 65.06 L 2339.99 61.93 L 2348.43 72.55 L 2355.71 68.25 L 2382.18 65.63 L 2435.30 68.37 L 2439.33 76.11 L 2508.54 78.57 L 2509.49 65.93 L 2544.62 68.83 L 2571.05 68.73 L 2597.79 77.45 L 2605.41 88.04 L 2595.62 94.97 L 2616.41 107.99 L 2642.44 114.71 L 2658.42 97.34 L 2684.98 104.79 L 2713.19 100.34 L 2745.24 105.43 L 2757.43 100.79 L 2784.51 103.11 L 2772.56 87.75 L 2794.42 80.58 L 2943.94 91.33 L 2958.04 101.15 L 3001.37 113.79 L 3068.23 110.66 L 3101.19 113.39 L 3114.97 120.23 L 3112.95 132.33 L 3133.35 137.04 L 3155.51 133.65 L 3184.87 133.22 L 3216.12 136.46 L 3247.50 134.63 L 3276.34 149.34 L 3296.86 144.05 L 3283.47 133.47 L 3290.84 126.12 L 3343.66 130.75 L 3378.10 129.76 L 3425.71 137.65 L 3448.89 144.87 L 3448.89 210.79 L 3448.77 210.88 L 3427.49 218.15 L 3406.03 216.94 L 3420.96 225.74 L 3430.81 239.38 L 3438.46 243.83 L 3440.39 250.68 L 3436.11 255.06 L 3405.25 251.46 L 3358.98 263.91 L 3344.26 265.84 L 3318.93 277.46 L 3294.90 287.62 L 3288.81 295.14 L 3265.13 283.69 L 3221.99 296.68 L 3214.46 290.53 L 3198.51 297.62 L 3176.37 295.35 L 3171.04 306.24 L 3151.18 322.25 L 3151.77 328.93 L 3170.62 332.64 L 3168.40 356.73 L 3153.03 357.34 L 3145.95 371.18 L 3152.83 378.31 L 3123.88 386.76 L 3118.14 405.65 L 3093.46 409.68 L 3088.49 426.49 L 3064.63 441.91 L 3058.51 430.51 L 3051.42 406.37 L 3042.18 369.60 L 3050.14 346.66 L 3064.11 336.78 L 3064.97 329.05 L 3090.70 325.35 L 3120.27 304.52 L 3148.77 287.51 L 3178.53 274.31 L 3191.84 250.98 L 3171.72 252.38 L 3161.78 266.01 L 3119.79 284.18 L 3106.23 263.83 L 3063.49 269.45 L 3022.05 297.18 L 3035.72 307.33 L 2998.77 311.65 L 2973.18 313.35 L 2974.38 301.39 L 2948.64 298.88 L 2928.13 307.01 L 2877.51 304.16 L 2823.05 309.07 L 2769.42 341.36 L 2705.98 380.38 L 2732.06 382.47 L 2740.20 392.83 L 2756.28 396.51 L 2766.88 388.24 L 2785.04 389.32 L 2808.94 407.52 L 2809.50 421.59 L 2796.56 438.13 L 2795.16 457.88 L 2787.69 484.34 L 2762.74 508.28 L 2757.19 519.72 L 2734.72 538.99 L 2712.42 558.09 L 2701.73 567.87 L 2679.67 577.57 L 2669.23 577.79 L 2658.83 569.75 L 2636.60 581.85 L 2634.02 587.36 L 2634.02 587.36 L 2634.02 587.36 L 2634.02 587.36 L 2631.71 584.46 L 2631.71 584.46 L 2631.61 576.06 L 2640.06 575.61 L 2642.44 556.06 L 2638.08 541.89 L 2652.29 536.05 L 2672.39 538.98 L 2683.52 522.88 L 2689.19 504.76 L 2695.62 498.70 L 2704.32 483.81 L 2676.96 488.69 L 2662.61 495.22 L 2637.46 495.20 L 2630.75 479.65 L 2611.14 467.89 L 2582.33 462.60 L 2576.20 446.40 L 2570.44 436.24 L 2564.23 429.12 L 2554.00 412.43 L 2539.46 406.34 L 2514.68 401.41 L 2492.74 401.86 L 2472.16 404.84 L 2458.49 413.07 L 2467.57 417.00 L 2467.78 426.14 L 2458.57 431.44 L 2443.63 448.99 L 2443.78 456.27 L 2420.45 466.73 L 2400.57 460.48 L 2380.82 461.86 L 2372.15 456.32 L 2362.22 454.53 L 2337.97 466.19 L 2316.18 468.93 L 2300.96 473.03 L 2280.11 470.33 L 2264.76 470.51 L 2254.71 462.05 L 2238.49 454.10 L 2221.90 451.92 L 2200.96 454.08 L 2185.31 457.15 L 2161.79 450.19 L 2158.64 437.79 L 2139.17 433.54 L 2124.14 431.60 L 2105.60 424.76 L 2088.45 441.91 L 2095.17 451.65 L 2079.08 463.17 L 2055.14 459.01 L 2038.62 458.41 L 2027.55 450.69 L 2010.28 450.44 L 1995.89 445.36 L 1970.70 453.15 L 1939.11 467.40 L 1921.66 470.26 L 1915.18 471.62 L 1906.40 461.50 L 1885.07 463.72 L 1878.02 456.70 L 1866.45 453.48 L 1858.48 443.92 L 1849.34 440.95 L 1825.55 445.20 L 1802.74 435.67 L 1793.92 444.33 L 1756.93 402.31 L 1735.81 389.53 L 1741.86 384.34 L 1700.37 399.95 L 1684.49 400.90 L 1685.86 391.87 L 1664.60 386.22 L 1647.32 390.25 L 1642.10 373.10 L 1612.35 369.53 L 1597.47 376.40 L 1556.04 382.51 L 1547.96 386.59 L 1486.01 392.35 L 1478.41 398.00 L 1490.37 409.33 L 1474.47 413.63 L 1477.57 418.14 L 1461.68 426.20 L 1488.51 437.58 L 1484.36 445.42 L 1461.11 444.70 L 1456.30 449.61 L 1435.13 441.04 L 1408.88 441.37 L 1391.31 448.35 L 1371.71 441.66 L 1335.22 430.20 L 1309.36 430.63 L 1275.18 448.62 L 1273.12 460.71 L 1256.10 451.11 L 1242.89 469.29 L 1247.72 472.67 L 1238.17 485.21 L 1252.22 496.43 L 1264.50 495.97 L 1275.06 507.02 L 1273.38 515.54 L 1281.79 518.21 L 1274.24 528.02 L 1258.19 530.75 L 1241.74 547.83 L 1256.78 563.53 L 1255.15 574.68 L 1273.23 594.16 L 1273.23 594.16 L 1281.94 602.87 L 1290.36 614.61 L 1298.07 615.39 L 1303.17 619.85 L 1289.53 621.18 L 1286.65 634.03 L 1283.81 639.82 L 1277.74 643.69 L 1278.18 651.88 L 1274.06 652.71 L 1263.73 644.04 L 1269.44 635.86 L 1264.55 631.00 L 1258.34 632.23 L 1238.82 644.43 L 1232.82 644.92 L 1221.47 642.72 L 1213.11 635.08 L 1210.48 628.84 L 1203.96 624.01 Z M -2343.89 194.29 L -2360.31 201.50 L -2387.45 203.21 L -2387.86 219.38 L -2394.48 222.82 L -2409.99 222.32 L -2422.60 216.56 L -2444.62 211.73 L -2448.32 204.55 L -2465.13 201.85 L -2483.96 203.99 L -2492.95 198.20 L -2489.36 192.05 L -2509.19 195.98 L -2501.72 203.77 L -2511.11 210.79 L -2511.11 144.87 L -2470.55 157.51 L -2427.15 173.96 L -2428.57 184.24 L -2417.40 188.36 L -2421.24 176.33 L -2376.30 178.80 L -2343.89 194.29 Z M -2471.01 106.72 L -2472.43 108.99 L -2489.49 112.95 L -2511.11 113.96 L -2511.11 102.65 L -2508.99 101.96 L -2494.96 101.99 L -2471.01 106.72 Z M 2839.21 470.11 L 2829.03 494.02 L 2845.17 510.97 L 2844.70 522.54 L 2832.16 512.56 L 2821.30 525.37 L 2818.24 511.48 L 2820.08 495.37 L 2818.20 477.51 L 2822.03 465.00 L 2822.76 442.88 L 2813.06 426.61 L 2814.52 404.00 L 2829.83 396.39 L 2823.25 388.72 L 2830.62 386.40 L 2834.92 397.34 L 2840.65 413.29 L 2840.23 429.57 L 2847.06 446.27 L 2863.72 475.57 L 2839.21 470.11 Z M 3448.89 102.65 L 3448.89 113.96 L 3430.73 114.80 L 3427.79 109.55 L 3448.89 102.65 Z M 2821.23 74.69 L 2787.30 72.85 L 2784.40 71.97 L 2800.10 65.43 L 2820.81 63.90 L 2844.33 70.23 L 2846.33 74.58 L 2821.23 74.69 Z M 1481.59 24.29 L 1536.70 21.19 L 1565.05 15.06 L 1597.27 12.91 L 1608.78 19.44 L 1597.66 24.59 L 1539.00 32.79 L 1488.44 40.68 L 1437.01 56.43 L 1412.34 72.58 L 1386.39 88.49 L 1389.76 102.24 L 1421.42 115.81 L 1411.64 117.26 L 1357.55 115.11 L 1353.15 107.76 L 1323.19 103.33 L 1320.77 94.39 L 1337.70 90.84 L 1337.13 81.82 L 1369.97 67.71 L 1354.75 65.68 L 1394.39 51.16 L 1389.91 43.65 L 1426.94 34.92 L 1481.59 24.29 Z M 2891.93 36.78 L 2922.79 39.28 L 2964.34 43.61 L 2945.20 50.15 L 2918.74 48.67 L 2887.97 42.14 L 2891.93 36.78 Z M 2769.37 51.43 L 2736.58 40.67 L 2745.47 29.30 L 2767.31 26.19 L 2811.03 26.92 L 2870.87 35.69 L 2857.86 47.98 L 2796.83 47.52 L 2769.37 51.43 Z M 2145.39 -25.05 L 2158.99 -26.91 L 2171.43 -25.84 L 2213.39 -16.44 L 2208.47 -9.71 L 2115.14 -3.33 L 2145.39 -25.05 Z M 2087.33 -17.15 L 2041.21 -21.92 L 2013.74 -28.24 L 2001.03 -40.11 L 1978.44 -43.38 L 2021.43 -54.68 L 2057.24 -58.42 L 2089.41 -50.09 L 2127.53 -34.09 L 2123.45 -19.21 L 2087.33 -17.15 Z M 1297.33 -52.93 L 1321.88 -49.30 L 1315.48 -46.78 L 1293.25 -44.60 L 1278.36 -43.35 L 1276.05 -40.63 L 1256.70 -37.90 L 1238.77 -41.82 L 1248.20 -46.98 L 1211.36 -47.49 L 1243.67 -50.50 L 1268.83 -50.70 L 1272.21 -46.24 L 1281.72 -50.20 L 1297.33 -52.93 Z"/>
<path id="country-greenland" class="map-country-svg" data-country="Greenland" data-capital="—" d="M -305.31 -81.21 L -249.73 -91.09 L -191.64 -90.34 L -170.52 -96.45 L -112.01 -98.04 L 20.23 -95.96 L 123.78 -82.84 L 93.21 -76.47 L 29.88 -75.74 L -59.23 -74.13 L -50.90 -71.17 L 7.71 -73.00 L 57.57 -67.29 L 89.71 -72.36 L 103.48 -66.43 L 85.30 -56.80 L 127.45 -62.95 L 207.84 -69.37 L 257.47 -66.17 L 266.77 -59.10 L 199.28 -47.32 L 189.93 -43.52 L 137.01 -40.66 L 175.35 -39.86 L 155.99 -27.80 L 142.66 -17.07 L 143.18 1.34 L 163.06 12.15 L 137.20 12.83 L 109.97 18.06 L 140.52 26.83 L 144.42 40.89 L 126.72 42.42 L 148.16 56.65 L 111.38 57.84 L 130.58 64.57 L 125.16 70.41 L 101.82 72.97 L 78.74 73.02 L 99.48 84.22 L 99.71 91.59 L 66.95 84.74 L 58.43 89.17 L 80.78 93.31 L 102.47 103.42 L 108.75 116.75 L 79.24 119.93 L 66.47 113.56 L 46.00 104.05 L 51.67 115.28 L 32.44 123.98 L 76.07 124.68 L 98.89 125.59 L 54.52 139.99 L 9.52 153.03 L -38.93 158.75 L -57.19 158.82 L -74.32 165.19 L -97.34 182.66 L -132.95 194.26 L -144.39 194.94 L -166.43 199.00 L -190.22 202.87 L -204.41 213.10 L -204.64 224.70 L -213.01 235.56 L -240.01 248.80 L -233.34 261.73 L -240.78 275.41 L -249.26 291.56 L -272.59 292.57 L -297.03 279.06 L -330.13 278.98 L -346.19 269.91 L -357.24 253.75 L -385.93 233.17 L -394.32 222.39 L -396.58 207.53 L -419.51 192.26 L -413.55 180.07 L -424.60 174.24 L -408.23 154.90 L -383.31 148.75 L -376.78 141.83 L -373.31 128.90 L -392.22 134.76 L -401.24 137.22 L -416.11 139.58 L -436.42 134.18 L -437.53 122.94 L -431.05 114.14 L -415.70 113.90 L -381.90 118.30 L -410.37 107.79 L -425.18 102.13 L -441.67 104.46 L -455.49 100.35 L -437.00 84.94 L -447.07 78.78 L -460.21 67.34 L -480.14 49.79 L -501.21 43.37 L -501.02 36.44 L -545.45 26.76 L -580.60 25.56 L -624.84 26.22 L -665.24 27.44 L -684.45 22.17 L -713.22 11.77 L -669.75 6.56 L -636.43 5.69 L -707.27 1.39 L -744.58 -5.37 L -742.31 -11.80 L -679.63 -19.76 L -618.99 -27.71 L -612.58 -33.73 L -657.27 -39.67 L -642.84 -46.26 L -585.52 -57.81 L -561.44 -59.59 L -568.34 -67.02 L -529.12 -71.37 L -478.21 -73.97 L -427.34 -74.12 L -409.27 -68.97 L -365.36 -78.08 L -325.84 -71.89 L -302.60 -70.59 L -268.21 -65.20 L -307.58 -74.12 L -305.31 -81.21 Z"/>
<path id="country-kazakhstan" class="map-country-svg" data-country="Kazakhstan" data-capital="—" d="M 1915.18 471.62 L 1902.58 482.64 L 1888.83 484.19 L 1888.04 500.78 L 1878.83 508.26 L 1845.99 502.81 L 1834.04 532.43 L 1825.57 536.12 L 1792.77 542.73 L 1807.67 571.47 L 1796.32 575.78 L 1797.64 585.21 L 1787.43 582.78 L 1779.13 576.84 L 1754.57 575.11 L 1727.12 574.65 L 1721.10 576.47 L 1697.52 569.52 L 1688.13 572.94 L 1685.55 582.71 L 1658.32 577.01 L 1647.42 579.35 L 1643.71 586.60 L 1634.22 589.65 L 1612.38 601.19 L 1605.14 613.03 L 1598.97 613.13 L 1594.43 605.30 L 1573.38 604.76 L 1570.01 591.20 L 1561.94 591.09 L 1563.18 574.49 L 1543.36 562.41 L 1514.96 563.70 L 1495.55 566.11 L 1479.74 551.19 L 1466.20 544.94 L 1440.53 533.09 L 1437.44 531.65 L 1394.82 541.43 L 1395.47 602.44 L 1386.98 603.25 L 1375.39 590.27 L 1364.20 585.64 L 1345.41 589.08 L 1338.10 594.59 L 1337.17 590.55 L 1341.24 583.66 L 1338.08 577.89 L 1318.89 572.25 L 1311.42 557.40 L 1302.28 553.21 L 1301.73 547.82 L 1317.83 549.39 L 1318.47 537.29 L 1332.55 534.61 L 1347.01 537.08 L 1349.99 520.94 L 1347.04 510.70 L 1330.47 511.51 L 1316.40 507.47 L 1297.23 514.74 L 1281.79 518.21 L 1273.38 515.54 L 1275.06 507.02 L 1264.50 495.97 L 1252.22 496.43 L 1238.17 485.21 L 1247.72 472.67 L 1242.89 469.29 L 1256.10 451.11 L 1273.12 460.71 L 1275.18 448.62 L 1309.36 430.63 L 1335.22 430.20 L 1371.71 441.66 L 1391.31 448.35 L 1408.88 441.37 L 1435.13 441.04 L 1456.30 449.61 L 1461.11 444.70 L 1484.36 445.42 L 1488.51 437.58 L 1461.68 426.20 L 1477.57 418.14 L 1474.47 413.63 L 1490.37 409.33 L 1478.41 398.00 L 1486.01 392.35 L 1547.96 386.59 L 1556.04 382.51 L 1597.47 376.40 L 1612.35 369.53 L 1642.10 373.10 L 1647.32 390.25 L 1664.60 386.22 L 1685.86 391.87 L 1684.49 400.90 L 1700.37 399.95 L 1741.86 384.34 L 1735.81 389.53 L 1756.93 402.31 L 1793.92 444.33 L 1802.74 435.67 L 1825.55 445.20 L 1849.34 440.95 L 1858.48 443.92 L 1866.45 453.48 L 1878.02 456.70 L 1885.07 463.72 L 1906.40 461.50 L 1915.18 471.62 Z"/>
<path id="country-cezayir" class="map-country-svg" data-country="Cezayir" data-capital="Cezayir" d="M 325.11 832.63 L 325.43 829.43 L 325.43 828.32 L 325.28 808.72 L 352.02 796.51 L 368.55 793.98 L 382.10 789.54 L 388.43 781.25 L 407.79 774.70 L 408.50 762.46 L 418.08 761.01 L 425.57 754.89 L 447.24 752.10 L 450.27 745.67 L 445.91 742.16 L 440.19 724.69 L 439.21 714.63 L 432.96 704.03 L 448.88 694.99 L 466.78 692.11 L 477.23 685.29 L 493.17 680.25 L 521.23 677.30 L 548.62 675.96 L 556.97 678.42 L 572.56 671.90 L 590.25 671.77 L 596.98 675.62 L 608.30 674.61 L 604.94 683.11 L 607.56 698.88 L 603.67 712.52 L 593.46 721.75 L 594.92 734.22 L 608.46 744.07 L 608.60 748.08 L 618.81 754.76 L 625.87 784.46 L 631.23 799.07 L 632.13 806.75 L 629.21 820.25 L 630.41 827.79 L 628.30 836.85 L 629.75 847.25 L 623.18 854.17 L 632.97 866.23 L 633.59 873.32 L 639.47 882.54 L 647.21 879.51 L 660.28 887.20 L 667.55 897.56 L 610.82 929.10 L 562.88 961.60 L 539.54 968.98 L 521.17 970.60 L 520.98 960.07 L 513.32 957.38 L 503.01 952.65 L 499.07 944.89 L 443.23 908.79 L 387.38 872.69 L 325.11 832.63 Z"/>
<path id="country-suudi-arabistan" class="map-country-svg" data-country="Suudi Arabistan" data-capital="—" d="M 1047.61 800.19 L 1066.03 802.82 L 1073.19 797.73 L 1077.15 791.77 L 1089.78 789.48 L 1092.51 783.94 L 1097.98 781.13 L 1081.48 764.59 L 1114.64 756.29 L 1117.79 753.79 L 1137.73 758.27 L 1162.40 769.86 L 1209.08 803.13 L 1239.86 804.45 L 1254.61 806.05 L 1258.74 813.93 L 1270.44 813.50 L 1276.93 827.77 L 1285.07 831.55 L 1287.91 837.36 L 1299.19 844.32 L 1300.19 851.14 L 1298.54 856.65 L 1300.64 862.21 L 1305.40 866.85 L 1307.60 872.27 L 1310.08 876.33 L 1315.08 879.61 L 1319.67 878.44 L 1322.82 884.76 L 1323.45 888.58 L 1329.79 905.34 L 1379.56 913.69 L 1382.89 910.19 L 1390.48 921.91 L 1379.44 955.00 L 1329.78 971.55 L 1282.04 977.89 L 1266.59 985.33 L 1254.73 1002.71 L 1247.00 1005.46 L 1242.86 999.95 L 1236.51 1000.78 L 1220.51 999.12 L 1217.48 997.47 L 1198.37 997.85 L 1193.88 999.34 L 1187.08 995.04 L 1182.69 1003.17 L 1184.39 1010.15 L 1177.12 1015.43 L 1174.98 1008.37 L 1169.98 1003.38 L 1168.71 996.78 L 1160.16 990.85 L 1151.33 976.98 L 1146.66 963.50 L 1135.21 952.11 L 1127.83 949.39 L 1116.86 933.62 L 1114.95 922.13 L 1115.65 912.32 L 1106.16 893.97 L 1098.40 887.52 L 1089.45 884.09 L 1084.01 874.61 L 1084.91 870.87 L 1080.31 862.30 L 1075.48 858.60 L 1069.01 846.29 L 1058.93 832.95 L 1050.49 821.59 L 1042.25 821.67 L 1044.82 812.59 L 1045.56 806.79 L 1047.61 800.19 Z"/>
<path id="country-sudan" class="map-country-svg" data-country="Sudan" data-capital="—" d="M 875.62 1149.75 L 863.01 1142.52 L 857.27 1137.76 L 856.20 1132.61 L 858.89 1125.73 L 858.84 1118.98 L 849.29 1108.63 L 847.42 1101.55 L 847.62 1097.55 L 841.53 1092.67 L 841.35 1083.06 L 837.88 1076.67 L 832.06 1077.63 L 833.73 1071.56 L 838.02 1064.66 L 836.15 1057.81 L 841.59 1052.73 L 838.14 1048.87 L 842.51 1038.65 L 850.07 1026.46 L 864.35 1027.62 L 863.53 961.94 L 863.74 955.00 L 882.78 954.95 L 882.78 921.91 L 949.33 921.91 L 1013.57 921.91 L 1079.23 921.91 L 1084.57 938.14 L 1080.94 941.14 L 1083.34 958.18 L 1089.42 977.93 L 1095.73 982.00 L 1104.79 988.12 L 1096.41 997.56 L 1084.22 1000.28 L 1079.00 1005.36 L 1077.37 1016.35 L 1070.24 1040.66 L 1072.00 1047.29 L 1069.36 1061.50 L 1062.63 1077.80 L 1052.65 1085.99 L 1045.55 1098.63 L 1043.88 1105.40 L 1036.04 1110.03 L 1031.14 1127.34 L 1031.36 1142.22 L 1031.17 1129.32 L 1028.88 1128.99 L 1029.16 1120.75 L 1027.17 1115.07 L 1018.65 1108.54 L 1016.66 1096.61 L 1018.65 1084.40 L 1010.97 1083.26 L 1009.84 1086.95 L 999.89 1087.80 L 1003.87 1092.63 L 1005.29 1102.58 L 996.20 1111.66 L 987.95 1123.59 L 979.43 1125.30 L 965.50 1115.64 L 959.25 1119.05 L 957.54 1123.88 L 949.02 1127.00 L 948.45 1130.41 L 931.96 1130.41 L 929.69 1127.00 L 917.75 1126.43 L 911.78 1129.28 L 907.24 1127.85 L 898.71 1118.20 L 895.87 1113.65 L 883.93 1115.93 L 879.38 1123.59 L 875.12 1138.36 L 869.44 1141.49 L 864.35 1143.29 L 875.62 1149.75 Z"/>
<path id="country-iran" class="map-country-svg" data-country="İran" data-capital="Tahran" d="M 1272.96 790.76 L 1263.80 782.06 L 1263.63 773.25 L 1258.35 773.25 L 1261.06 761.27 L 1252.54 748.69 L 1232.25 739.62 L 1220.79 723.90 L 1224.62 710.99 L 1232.96 705.28 L 1231.71 695.61 L 1220.85 690.64 L 1210.13 670.91 L 1210.13 670.91 L 1201.07 657.65 L 1204.31 652.53 L 1199.14 633.55 L 1210.48 628.84 L 1213.11 635.08 L 1221.47 642.72 L 1232.82 644.92 L 1238.82 644.43 L 1258.34 632.23 L 1264.55 631.00 L 1269.44 635.86 L 1263.73 644.04 L 1274.06 652.71 L 1278.18 651.88 L 1283.42 664.08 L 1299.11 667.53 L 1310.61 675.83 L 1334.15 678.68 L 1360.00 674.31 L 1361.59 670.44 L 1376.14 667.23 L 1387.91 657.78 L 1398.99 658.26 L 1406.25 655.17 L 1418.03 656.70 L 1436.33 665.09 L 1449.55 666.89 L 1468.47 681.55 L 1480.82 682.14 L 1482.27 696.06 L 1475.52 716.68 L 1470.97 728.72 L 1478.18 731.16 L 1471.10 740.22 L 1476.52 753.43 L 1477.82 763.93 L 1490.36 766.72 L 1491.71 777.37 L 1476.70 792.37 L 1484.89 801.07 L 1491.56 811.07 L 1507.38 818.34 L 1507.84 832.91 L 1515.76 835.59 L 1517.13 843.21 L 1493.25 851.76 L 1487.01 870.98 L 1455.87 865.98 L 1437.82 862.18 L 1419.13 860.03 L 1412.07 839.74 L 1404.15 836.81 L 1391.43 839.77 L 1374.73 847.77 L 1354.50 842.29 L 1337.78 829.57 L 1321.84 824.86 L 1310.79 809.16 L 1298.57 787.10 L 1289.66 789.78 L 1279.14 784.30 L 1272.96 790.76 Z"/>
<path id="country-libya" class="map-country-svg" data-country="Libya" data-capital="Trablus" d="M 882.78 921.91 L 882.78 954.95 L 863.74 955.00 L 863.53 961.94 L 797.50 930.26 L 731.47 898.58 L 714.76 907.63 L 703.05 913.78 L 693.74 904.69 L 667.55 897.56 L 660.28 887.20 L 647.21 879.51 L 639.47 882.54 L 633.59 873.32 L 632.97 866.23 L 623.18 854.17 L 629.75 847.25 L 628.30 836.85 L 630.41 827.79 L 629.21 820.25 L 632.13 806.75 L 631.23 799.07 L 625.87 784.46 L 633.95 780.62 L 635.38 773.63 L 633.62 766.78 L 644.99 760.40 L 650.09 755.10 L 658.16 750.35 L 659.09 737.64 L 678.54 743.34 L 685.49 741.91 L 699.32 744.67 L 721.29 752.07 L 729.04 766.77 L 743.90 769.99 L 767.24 776.91 L 784.88 785.14 L 792.95 780.85 L 800.88 773.24 L 797.03 760.56 L 802.22 752.51 L 814.15 744.76 L 825.54 742.50 L 847.94 745.89 L 853.59 753.29 L 859.75 753.36 L 865.02 756.18 L 881.47 758.12 L 885.51 763.58 L 879.51 771.52 L 882.08 778.60 L 877.81 788.81 L 882.78 802.14 L 882.78 860.98 L 882.78 921.91 Z"/>
<path id="country-chad" class="map-country-svg" data-country="Chad" data-capital="—" d="M 863.53 961.94 L 864.35 1027.62 L 850.07 1026.46 L 842.51 1038.65 L 838.14 1048.87 L 841.59 1052.73 L 836.15 1057.81 L 838.02 1064.66 L 833.73 1071.56 L 832.06 1077.63 L 837.88 1076.67 L 841.35 1083.06 L 841.53 1092.67 L 847.62 1097.55 L 847.42 1101.55 L 836.94 1104.37 L 828.54 1111.07 L 816.57 1129.12 L 800.99 1136.79 L 785.00 1135.76 L 780.33 1137.28 L 781.97 1143.11 L 773.34 1148.89 L 766.31 1155.35 L 745.47 1161.68 L 741.33 1157.93 L 738.59 1157.61 L 735.54 1161.87 L 721.85 1163.11 L 724.44 1158.63 L 719.22 1147.22 L 716.89 1140.37 L 709.68 1137.56 L 699.91 1127.91 L 703.51 1120.10 L 711.05 1121.76 L 715.72 1120.58 L 724.97 1120.75 L 715.96 1105.71 L 716.56 1094.72 L 715.46 1083.74 L 708.87 1073.14 L 710.53 1065.35 L 699.91 1064.97 L 699.95 1054.33 L 693.06 1048.20 L 700.21 1026.40 L 721.32 1010.80 L 722.20 989.28 L 728.58 955.71 L 732.18 948.59 L 725.29 942.91 L 725.02 937.65 L 718.83 933.35 L 714.76 907.63 L 731.47 898.58 L 797.50 930.26 L 863.53 961.94 Z"/>
<path id="country-mali" class="map-country-svg" data-country="Mali" data-capital="—" d="M 278.27 1080.03 L 279.03 1074.88 L 277.62 1068.48 L 271.42 1063.83 L 268.15 1054.36 L 267.40 1044.07 L 272.97 1041.05 L 275.75 1031.30 L 281.00 1030.92 L 292.56 1035.53 L 301.90 1032.26 L 308.30 1033.36 L 310.78 1029.68 L 377.21 1029.43 L 380.89 1017.84 L 378.02 1015.80 L 370.03 944.40 L 362.04 872.99 L 387.38 872.69 L 443.23 908.79 L 499.07 944.89 L 503.01 952.65 L 513.32 957.38 L 520.98 960.07 L 521.17 970.60 L 539.54 968.98 L 539.58 1007.08 L 530.53 1018.13 L 529.12 1028.33 L 514.42 1030.95 L 491.83 1032.37 L 485.71 1038.25 L 475.10 1038.90 L 464.48 1038.98 L 460.35 1035.81 L 451.23 1038.16 L 435.76 1045.02 L 432.60 1050.20 L 419.76 1057.61 L 417.51 1061.86 L 410.57 1065.23 L 402.56 1063.00 L 398.02 1067.04 L 395.59 1078.39 L 382.45 1092.10 L 382.84 1097.70 L 378.32 1104.72 L 379.42 1114.32 L 372.59 1116.77 L 368.72 1118.86 L 366.16 1111.78 L 361.38 1113.65 L 358.52 1113.33 L 355.47 1118.15 L 342.69 1118.02 L 338.11 1115.53 L 335.95 1117.04 L 330.89 1112.27 L 331.77 1107.34 L 329.70 1105.41 L 326.17 1107.04 L 326.82 1101.65 L 330.21 1097.40 L 323.43 1090.46 L 321.46 1085.90 L 317.78 1082.27 L 314.47 1081.83 L 310.49 1084.15 L 305.14 1086.36 L 300.60 1089.94 L 293.51 1088.62 L 288.92 1084.42 L 286.17 1083.87 L 281.85 1086.07 L 279.23 1086.09 L 278.27 1080.03 Z"/>
<path id="country-niger" class="map-country-svg" data-country="Niger" data-capital="—" d="M 714.76 907.63 L 718.83 933.35 L 725.02 937.65 L 725.29 942.91 L 732.18 948.59 L 728.58 955.71 L 722.20 989.28 L 721.32 1010.80 L 700.21 1026.40 L 693.06 1048.20 L 699.95 1054.33 L 699.91 1064.97 L 710.53 1065.35 L 708.87 1073.14 L 704.20 1074.09 L 703.67 1079.36 L 700.59 1079.73 L 689.39 1061.61 L 685.50 1060.95 L 672.56 1070.20 L 659.74 1065.38 L 650.83 1064.41 L 646.05 1066.73 L 636.35 1066.23 L 626.58 1073.28 L 618.14 1073.69 L 598.10 1065.13 L 590.25 1069.20 L 581.81 1068.91 L 575.60 1062.67 L 559.00 1056.49 L 541.21 1058.45 L 536.90 1062.03 L 534.57 1071.54 L 529.82 1078.22 L 528.67 1092.99 L 516.05 1083.46 L 510.11 1083.51 L 504.56 1088.35 L 504.93 1077.02 L 485.84 1073.27 L 485.33 1065.26 L 476.01 1054.46 L 473.78 1046.92 L 475.10 1038.90 L 485.71 1038.25 L 491.83 1032.37 L 514.42 1030.95 L 529.12 1028.33 L 530.53 1018.13 L 539.58 1007.08 L 539.54 968.98 L 562.88 961.60 L 610.82 929.10 L 667.55 897.56 L 693.74 904.69 L 703.05 913.78 L 714.76 907.63 Z"/>
<path id="country-mauritania" class="map-country-svg" data-country="Mauritania" data-capital="—" d="M 186.39 938.46 L 190.01 932.94 L 254.84 933.04 L 251.70 909.15 L 255.75 900.65 L 271.26 899.17 L 270.73 856.83 L 325.07 857.70 L 325.11 832.63 L 387.38 872.69 L 362.04 872.99 L 370.03 944.40 L 378.02 1015.80 L 380.89 1017.84 L 377.21 1029.43 L 310.78 1029.68 L 308.30 1033.36 L 301.90 1032.26 L 292.56 1035.53 L 281.00 1030.92 L 275.75 1031.30 L 272.97 1041.05 L 267.40 1044.07 L 256.47 1032.70 L 246.45 1020.53 L 235.46 1016.15 L 227.55 1011.28 L 218.31 1011.46 L 210.23 1015.07 L 202.00 1013.64 L 196.33 1018.95 L 194.90 1010.03 L 199.52 1001.87 L 201.58 986.30 L 199.75 969.95 L 197.75 961.72 L 199.40 953.47 L 195.12 945.60 L 186.39 938.46 Z"/>
<path id="country-norvec" class="map-country-svg" data-country="Norveç" data-capital="Oslo" d="M 719.59 -32.34 L 725.87 -37.99 L 750.18 -38.57 L 771.06 -32.79 L 825.56 -20.46 L 783.90 -13.94 L 774.70 -1.77 L 760.17 1.35 L 752.29 15.06 L 732.34 15.71 L 696.74 5.62 L 711.75 -0.26 L 686.94 -5.05 L 654.68 -19.02 L 641.80 -31.98 L 686.94 -37.90 L 696.01 -32.11 L 719.59 -32.34 Z M 983.78 135.04 L 955.61 141.68 L 942.24 143.20 L 949.26 131.59 L 928.01 125.01 L 902.31 130.62 L 894.19 142.75 L 878.40 150.07 L 860.63 146.07 L 839.01 146.89 L 820.61 138.14 L 810.69 142.51 L 800.42 143.19 L 797.99 154.08 L 766.79 151.43 L 762.41 160.64 L 746.51 160.59 L 735.58 172.36 L 719.02 190.70 L 693.31 213.98 L 699.34 219.63 L 693.58 226.19 L 677.16 225.90 L 666.41 241.42 L 667.42 263.39 L 678.00 271.78 L 672.53 291.23 L 658.75 302.57 L 651.45 312.11 L 640.35 301.95 L 607.66 321.09 L 585.58 324.97 L 562.69 316.54 L 556.77 298.75 L 551.54 260.57 L 566.78 249.92 L 610.50 236.03 L 643.18 218.96 L 673.49 195.90 L 713.27 163.95 L 740.99 151.50 L 786.49 130.75 L 822.82 123.51 L 850.06 124.38 L 875.27 110.68 L 905.46 111.41 L 935.19 108.11 L 986.97 120.22 L 965.65 124.65 L 983.78 135.04 Z M 922.64 -38.66 L 898.09 -29.75 L 850.07 -27.80 L 801.24 -30.56 L 798.30 -35.12 L 774.54 -35.41 L 756.43 -43.00 L 807.55 -47.62 L 831.59 -43.65 L 848.33 -48.60 L 890.19 -44.47 L 922.64 -38.66 Z M 878.21 -2.22 L 841.23 4.55 L 812.02 0.71 L 823.44 -3.56 L 813.44 -8.85 L 847.75 -12.16 L 854.32 -5.95 L 878.21 -2.22 Z"/>
<path id="country-misir" class="map-country-svg" data-country="Mısır" data-capital="Kahire" d="M 1079.23 921.91 L 1013.57 921.91 L 949.33 921.91 L 882.78 921.91 L 882.78 860.98 L 882.78 802.14 L 877.81 788.81 L 882.08 778.60 L 879.51 771.52 L 885.51 763.58 L 907.53 763.31 L 923.47 767.68 L 939.90 772.57 L 947.57 775.15 L 960.31 769.91 L 967.13 765.17 L 981.73 763.80 L 993.50 765.89 L 998.01 774.10 L 1001.85 768.69 L 1015.12 772.60 L 1028.03 773.54 L 1036.17 769.37 L 1036.17 769.37 L 1045.41 793.50 L 1047.05 797.80 L 1042.40 804.45 L 1038.84 816.94 L 1034.34 825.56 L 1030.48 828.45 L 1024.96 823.11 L 1017.49 815.73 L 1005.67 792.01 L 1003.97 793.51 L 1010.83 810.97 L 1021.00 827.60 L 1033.51 853.37 L 1039.62 862.37 L 1044.94 871.71 L 1059.80 890.03 L 1056.51 892.92 L 1057.04 903.67 L 1076.32 918.52 L 1079.23 921.91 Z"/>
<path id="country-turkiye" class="map-country-svg" data-country="Türkiye" data-capital="Ankara" d="M 1210.13 670.91 L 1202.19 673.70 L 1196.38 669.49 L 1177.12 667.35 L 1170.01 669.92 L 1151.18 672.50 L 1142.26 672.22 L 1123.21 678.43 L 1109.59 678.48 L 1100.78 675.36 L 1082.55 679.96 L 1077.13 676.75 L 1076.24 685.98 L 1071.80 689.60 L 1067.37 693.23 L 1061.28 685.72 L 1067.55 679.51 L 1057.45 680.92 L 1043.61 677.11 L 1032.22 686.63 L 1007.10 688.49 L 993.69 679.61 L 975.85 679.06 L 972.03 685.92 L 960.59 687.88 L 944.58 679.07 L 926.50 679.37 L 916.70 662.92 L 904.60 653.74 L 912.66 640.87 L 902.16 632.97 L 920.52 617.14 L 946.02 616.48 L 952.97 603.91 L 984.53 606.10 L 1004.43 595.36 L 1023.72 590.69 L 1051.11 590.33 L 1080.01 602.00 L 1103.76 608.40 L 1123.04 605.85 L 1137.29 607.32 L 1156.84 598.68 L 1174.48 597.90 L 1190.43 606.02 L 1193.24 611.84 L 1191.65 619.90 L 1203.96 624.01 L 1210.48 628.84 L 1199.14 633.55 L 1204.31 652.53 L 1201.07 657.65 L 1210.13 670.91 L 1210.13 670.91 Z M 901.27 593.86 L 918.14 588.66 L 932.39 590.88 L 934.36 597.24 L 948.81 602.58 L 945.80 606.64 L 926.14 607.55 L 919.07 612.67 L 905.26 621.58 L 900.05 613.87 L 900.28 610.46 L 904.21 608.60 L 909.34 598.25 L 901.27 593.86 Z"/>
<path id="country-pakistan" class="map-country-svg" data-country="Pakistan" data-capital="—" d="M 1757.53 698.64 L 1741.54 712.55 L 1723.09 715.01 L 1697.98 710.97 L 1689.86 718.11 L 1695.73 732.60 L 1701.48 743.80 L 1714.84 751.97 L 1700.72 761.54 L 1700.98 773.33 L 1684.91 789.94 L 1674.53 806.73 L 1657.21 824.07 L 1637.98 822.82 L 1619.74 840.16 L 1630.57 847.59 L 1632.46 860.32 L 1641.76 868.71 L 1645.05 882.92 L 1608.62 882.88 L 1597.59 893.91 L 1585.46 889.73 L 1580.52 877.84 L 1567.73 865.24 L 1537.23 868.35 L 1510.33 868.66 L 1487.01 870.98 L 1493.25 851.76 L 1517.13 843.21 L 1515.76 835.59 L 1507.84 832.91 L 1507.38 818.34 L 1491.56 811.07 L 1484.89 801.07 L 1476.70 792.37 L 1504.44 800.82 L 1521.00 798.34 L 1530.89 800.45 L 1534.25 796.82 L 1545.78 798.28 L 1567.29 791.40 L 1567.87 777.32 L 1577.10 767.96 L 1589.43 767.98 L 1591.23 763.36 L 1603.89 761.20 L 1610.01 762.74 L 1616.48 758.09 L 1615.57 748.15 L 1622.60 738.16 L 1633.14 733.98 L 1626.63 723.03 L 1642.38 723.55 L 1646.93 717.59 L 1646.24 711.23 L 1654.48 704.28 L 1652.59 696.05 L 1648.68 689.04 L 1658.34 681.84 L 1676.12 678.36 L 1695.12 676.44 L 1703.53 673.38 L 1713.17 671.53 L 1725.40 679.24 L 1730.30 691.95 L 1757.53 698.64 Z"/>
<path id="country-isvec" class="map-country-svg" data-country="İsveç" data-capital="Stockholm" d="M 651.45 312.11 L 658.75 302.57 L 672.53 291.23 L 678.00 271.78 L 667.42 263.39 L 666.41 241.42 L 677.16 225.90 L 693.58 226.19 L 699.34 219.63 L 693.31 213.98 L 719.02 190.70 L 735.58 172.36 L 746.51 160.59 L 762.41 160.64 L 766.79 151.43 L 797.99 154.08 L 800.42 143.19 L 810.69 142.51 L 832.76 150.61 L 858.60 161.88 L 859.04 187.36 L 864.62 193.79 L 836.14 198.48 L 820.09 210.02 L 822.68 220.16 L 796.34 233.46 L 764.37 247.69 L 752.31 270.99 L 764.10 282.65 L 779.93 291.83 L 764.72 310.49 L 747.51 314.36 L 741.19 342.14 L 731.79 357.64 L 711.70 356.04 L 702.33 369.16 L 683.17 369.92 L 677.90 354.28 L 664.04 335.51 L 651.45 312.11 Z"/>
<path id="country-fransa" class="map-country-svg" data-country="Fransa" data-capital="Paris" d="M -386.33 1217.14 L -396.13 1232.28 L -401.21 1244.47 L -407.56 1250.75 L -415.48 1251.93 L -417.74 1247.28 L -421.44 1246.59 L -426.57 1251.07 L -433.80 1247.66 L -429.58 1240.70 L -428.12 1233.13 L -425.23 1226.01 L -431.73 1216.21 L -433.04 1204.89 L -424.42 1190.66 L -418.79 1192.48 L -406.60 1196.40 L -389.08 1210.37 L -386.33 1217.14 Z M 571.31 467.51 L 579.12 471.84 L 602.98 474.89 L 594.61 486.22 L 592.51 498.00 L 587.96 500.83 L 580.42 499.31 L 580.95 503.51 L 568.84 512.81 L 568.60 520.30 L 576.50 517.71 L 582.19 524.96 L 581.51 529.64 L 586.38 535.85 L 580.64 540.89 L 584.90 553.69 L 593.88 555.79 L 591.98 562.97 L 576.98 572.32 L 544.33 567.84 L 520.22 573.21 L 518.32 583.17 L 499.13 585.32 L 480.50 577.83 L 474.49 581.41 L 444.01 573.89 L 437.41 567.46 L 445.97 557.53 L 449.12 524.57 L 432.04 507.21 L 419.83 498.84 L 394.53 492.47 L 392.86 480.41 L 414.32 476.81 L 442.13 481.07 L 436.88 462.34 L 452.51 469.43 L 491.05 456.53 L 496.02 442.97 L 510.50 439.63 L 512.90 445.45 L 520.60 445.72 L 528.29 452.37 L 539.85 460.17 L 548.34 458.88 L 562.83 466.42 L 566.53 467.86 L 571.31 467.51 Z M 613.68 580.61 L 624.35 574.29 L 627.16 588.48 L 621.69 601.26 L 614.18 597.89 L 610.34 586.76 L 613.68 580.61 Z"/>
<path id="country-finlandiya" class="map-country-svg" data-country="Finlandiya" data-capital="Helsinki" d="M 942.24 143.20 L 939.83 154.79 L 965.18 165.81 L 949.90 178.29 L 969.16 197.12 L 958.01 211.30 L 972.92 223.62 L 966.15 234.40 L 990.66 245.73 L 984.43 254.17 L 969.05 263.73 L 933.60 284.85 L 933.60 284.85 L 933.60 284.85 L 903.56 286.17 L 874.44 292.23 L 847.51 295.72 L 837.92 286.70 L 821.89 281.27 L 825.58 264.97 L 817.54 250.04 L 825.43 240.41 L 840.44 230.01 L 878.32 212.07 L 889.37 208.61 L 887.65 201.61 L 864.62 193.79 L 859.04 187.36 L 858.60 161.88 L 832.76 150.61 L 810.69 142.51 L 820.61 138.14 L 839.01 146.89 L 860.63 146.07 L 878.40 150.07 L 894.19 142.75 L 902.31 130.62 L 928.01 125.01 L 949.26 131.59 L 942.24 143.20 Z"/>
<path id="country-afghanistan" class="map-country-svg" data-country="Afghanistan" data-capital="—" d="M 1570.14 667.72 L 1579.37 667.83 L 1591.85 671.33 L 1596.91 673.34 L 1608.90 668.03 L 1614.47 671.23 L 1619.81 663.65 L 1629.71 663.99 L 1632.26 661.56 L 1634.01 654.89 L 1641.14 649.14 L 1650.10 652.90 L 1648.30 657.96 L 1653.31 658.74 L 1651.76 672.64 L 1658.32 678.06 L 1664.08 674.58 L 1671.43 672.94 L 1681.75 665.53 L 1693.15 666.75 L 1710.22 666.78 L 1713.17 671.53 L 1703.53 673.38 L 1695.12 676.44 L 1676.12 678.36 L 1658.34 681.84 L 1648.68 689.04 L 1652.59 696.05 L 1654.48 704.28 L 1646.24 711.23 L 1646.93 717.59 L 1642.38 723.55 L 1626.63 723.03 L 1633.14 733.98 L 1622.60 738.16 L 1615.57 748.15 L 1616.48 758.09 L 1610.01 762.74 L 1603.89 761.20 L 1591.23 763.36 L 1589.43 767.98 L 1577.10 767.96 L 1567.87 777.32 L 1567.29 791.40 L 1545.78 798.28 L 1534.25 796.82 L 1530.89 800.45 L 1521.00 798.34 L 1504.44 800.82 L 1476.70 792.37 L 1491.71 777.37 L 1490.36 766.72 L 1477.82 763.93 L 1476.52 753.43 L 1471.10 740.22 L 1478.18 731.16 L 1470.97 728.72 L 1475.52 716.68 L 1482.27 696.06 L 1499.15 702.34 L 1511.63 700.13 L 1515.09 692.64 L 1528.16 690.14 L 1537.49 685.11 L 1540.80 671.88 L 1554.75 668.68 L 1557.34 662.79 L 1565.15 667.21 L 1570.14 667.72 Z"/>
<path id="country-fas" class="map-country-svg" data-country="Fas" data-capital="Rabat" d="M 432.96 704.03 L 439.21 714.63 L 440.19 724.69 L 445.91 742.16 L 450.27 745.67 L 447.24 752.10 L 425.57 754.89 L 418.08 761.01 L 408.50 762.46 L 407.79 774.70 L 388.43 781.25 L 382.10 789.54 L 368.55 793.98 L 352.02 796.51 L 325.28 808.72 L 325.43 828.32 L 322.90 828.32 L 323.28 837.18 L 313.05 837.72 L 307.71 841.48 L 300.20 841.48 L 294.21 839.33 L 280.28 841.11 L 274.89 854.01 L 269.71 855.22 L 261.93 876.08 L 238.91 893.93 L 233.45 916.78 L 226.67 924.21 L 224.68 930.17 L 187.40 931.49 L 187.11 931.47 L 187.89 923.80 L 194.25 919.29 L 199.66 910.67 L 198.60 905.07 L 204.29 893.40 L 213.50 882.88 L 219.08 880.21 L 223.46 870.56 L 223.85 861.75 L 229.83 851.52 L 240.86 845.49 L 251.35 828.59 L 251.65 828.36 L 259.98 822.00 L 275.37 820.18 L 288.42 808.87 L 296.72 804.46 L 310.54 790.64 L 306.40 770.06 L 312.69 755.82 L 314.91 747.11 L 325.56 735.93 L 342.17 728.38 L 354.45 721.54 L 365.51 704.40 L 370.71 694.24 L 382.90 694.32 L 392.88 701.35 L 408.63 700.20 L 425.77 703.86 L 432.96 704.03 Z"/>
<path id="country-ispanya" class="map-country-svg" data-country="İspanya" data-capital="Madrid" d="M 345.49 672.11 L 344.11 666.63 L 350.24 660.43 L 352.52 655.93 L 346.81 651.01 L 351.38 640.14 L 344.74 630.22 L 351.90 628.86 L 352.56 621.04 L 355.25 618.62 L 355.46 605.71 L 363.11 601.23 L 358.49 592.93 L 348.84 592.35 L 346.01 594.44 L 336.23 594.46 L 332.08 586.36 L 325.32 588.77 L 319.31 592.98 L 320.15 581.19 L 313.38 574.01 L 336.81 562.07 L 357.06 565.06 L 379.29 564.95 L 396.91 567.78 L 410.65 566.91 L 437.41 567.46 L 444.01 573.89 L 474.49 581.41 L 480.50 577.83 L 499.13 585.32 L 518.32 583.17 L 519.21 592.78 L 503.52 603.80 L 482.31 607.30 L 480.83 612.87 L 470.66 622.04 L 464.27 635.51 L 470.73 644.96 L 461.16 652.34 L 457.57 663.10 L 445.08 666.40 L 433.35 679.12 L 412.34 679.37 L 396.56 679.06 L 386.19 684.90 L 379.87 691.15 L 371.77 689.78 L 365.64 684.19 L 360.94 674.67 L 345.49 672.11 Z"/>
<path id="country-turkmenistan" class="map-country-svg" data-country="Turkmenistan" data-capital="—" d="M 1338.10 594.59 L 1345.41 589.08 L 1364.20 585.64 L 1375.39 590.27 L 1386.98 603.25 L 1395.47 602.44 L 1414.15 602.21 L 1411.43 593.88 L 1425.58 588.18 L 1439.52 578.57 L 1461.83 587.31 L 1463.60 600.51 L 1469.94 603.90 L 1487.84 603.14 L 1493.39 606.14 L 1501.53 623.20 L 1520.46 634.63 L 1531.26 642.42 L 1548.58 650.52 L 1570.60 657.60 L 1570.14 667.72 L 1565.15 667.21 L 1557.34 662.79 L 1554.75 668.68 L 1540.80 671.88 L 1537.49 685.11 L 1528.16 690.14 L 1515.09 692.64 L 1511.63 700.13 L 1499.15 702.34 L 1482.27 696.06 L 1480.82 682.14 L 1468.47 681.55 L 1449.55 666.89 L 1436.33 665.09 L 1418.03 656.70 L 1406.25 655.17 L 1398.99 658.26 L 1387.91 657.78 L 1376.14 667.23 L 1361.59 670.44 L 1358.51 658.73 L 1360.92 641.43 L 1348.01 635.83 L 1352.26 624.50 L 1341.27 623.53 L 1344.93 609.59 L 1360.54 613.65 L 1375.09 608.36 L 1363.03 598.43 L 1358.28 588.96 L 1344.96 593.18 L 1343.27 605.31 L 1338.10 594.59 Z"/>
<path id="country-uzbekistan" class="map-country-svg" data-country="Uzbekistan" data-capital="—" d="M 1395.47 602.44 L 1394.82 541.43 L 1437.44 531.65 L 1440.53 533.09 L 1466.20 544.94 L 1479.74 551.19 L 1495.55 566.11 L 1514.96 563.70 L 1543.36 562.41 L 1563.18 574.49 L 1561.94 591.09 L 1570.01 591.20 L 1573.38 604.76 L 1594.43 605.30 L 1598.97 613.13 L 1605.14 613.03 L 1612.38 601.19 L 1634.22 589.65 L 1643.71 586.60 L 1648.63 588.23 L 1634.73 598.94 L 1646.95 605.17 L 1658.74 601.04 L 1678.36 609.76 L 1657.16 621.68 L 1644.57 620.05 L 1637.73 620.48 L 1635.36 615.88 L 1638.81 608.20 L 1616.68 612.05 L 1611.41 622.67 L 1603.55 631.81 L 1589.72 631.03 L 1585.43 638.32 L 1597.58 642.27 L 1601.16 654.58 L 1591.85 671.33 L 1579.37 667.83 L 1570.14 667.72 L 1570.60 657.60 L 1548.58 650.52 L 1531.26 642.42 L 1520.46 634.63 L 1501.53 623.20 L 1493.39 606.14 L 1487.84 603.14 L 1469.94 603.90 L 1463.60 600.51 L 1461.83 587.31 L 1439.52 578.57 L 1425.58 588.18 L 1411.43 593.88 L 1414.15 602.21 L 1395.47 602.44 Z"/>
<path id="country-almanya" class="map-country-svg" data-country="Almanya" data-capital="Berlin" d="M 702.65 396.47 L 706.52 404.89 L 701.90 409.31 L 707.91 415.21 L 712.01 424.06 L 710.72 429.76 L 717.50 440.33 L 710.12 442.05 L 705.75 440.15 L 701.60 443.30 L 689.71 446.50 L 683.56 450.63 L 671.53 454.23 L 674.43 459.15 L 676.18 466.12 L 684.63 470.10 L 693.98 477.21 L 688.14 484.84 L 682.19 486.94 L 684.54 497.72 L 683.00 500.54 L 677.83 497.15 L 669.90 496.64 L 658.06 499.61 L 643.46 498.90 L 641.10 503.27 L 632.72 498.67 L 627.73 499.59 L 609.99 494.53 L 606.59 498.12 L 592.51 498.00 L 594.61 486.22 L 602.98 474.89 L 579.12 471.84 L 571.31 467.51 L 572.24 460.25 L 568.94 456.52 L 570.82 445.34 L 568.03 428.00 L 577.98 427.99 L 582.18 421.77 L 586.30 406.62 L 583.21 401.02 L 586.44 397.52 L 600.28 396.62 L 603.35 400.27 L 614.59 392.11 L 610.81 385.91 L 610.05 376.53 L 622.56 378.71 L 633.15 376.19 L 633.44 382.58 L 650.17 386.44 L 650.00 392.31 L 666.83 389.20 L 676.14 384.67 L 694.83 391.21 L 702.65 396.47 Z"/>
<path id="country-irak" class="map-country-svg" data-country="Irak" data-capital="Bağdat" d="M 1117.79 753.79 L 1111.12 733.64 L 1147.77 716.42 L 1154.02 696.42 L 1152.46 684.34 L 1161.52 680.25 L 1170.01 669.92 L 1177.12 667.35 L 1196.38 669.49 L 1202.19 673.70 L 1210.13 670.91 L 1220.85 690.64 L 1231.71 695.61 L 1232.96 705.28 L 1224.62 710.99 L 1220.79 723.90 L 1232.25 739.62 L 1252.54 748.69 L 1261.06 761.27 L 1258.35 773.25 L 1263.63 773.25 L 1263.80 782.06 L 1272.96 790.76 L 1263.13 789.95 L 1252.01 788.57 L 1239.86 804.45 L 1209.08 803.13 L 1162.40 769.86 L 1137.73 758.27 L 1117.79 753.79 Z"/>
<path id="country-polonya" class="map-country-svg" data-country="Polonya" data-capital="Varşova" d="M 857.68 393.90 L 858.40 401.22 L 862.99 407.52 L 862.90 414.11 L 852.97 417.49 L 858.08 425.15 L 858.39 432.52 L 866.72 446.97 L 864.94 451.61 L 856.73 453.53 L 841.69 467.29 L 845.97 474.73 L 842.35 473.76 L 826.62 467.40 L 814.70 469.74 L 806.88 468.04 L 797.10 471.59 L 788.75 465.72 L 781.95 467.97 L 781.01 466.97 L 773.39 458.82 L 761.09 457.83 L 759.51 452.64 L 748.16 450.79 L 745.69 455.07 L 736.70 451.64 L 737.73 447.09 L 725.35 445.65 L 717.50 440.33 L 710.72 429.76 L 712.01 424.06 L 707.91 415.21 L 701.90 409.31 L 706.52 404.89 L 702.65 396.47 L 713.96 391.62 L 739.80 383.96 L 760.64 378.37 L 777.17 381.16 L 778.42 385.20 L 794.38 385.40 L 814.77 387.28 L 845.21 387.04 L 853.71 388.81 L 857.68 393.90 Z"/>
<path id="country-italya" class="map-country-svg" data-country="İtalya" data-capital="Roma" d="M 641.77 510.03 L 651.80 512.39 L 653.73 509.24 L 670.09 506.36 L 673.79 512.12 L 697.46 516.39 L 695.67 524.54 L 699.63 531.59 L 686.46 529.17 L 673.00 535.05 L 673.91 543.26 L 671.88 547.97 L 677.31 556.40 L 692.83 564.73 L 701.16 578.41 L 719.58 591.74 L 732.56 591.64 L 736.59 595.30 L 731.95 598.59 L 746.77 604.57 L 758.93 609.58 L 773.13 618.21 L 774.84 621.30 L 771.75 627.22 L 762.56 619.50 L 748.17 616.77 L 741.21 627.48 L 753.17 633.61 L 751.21 642.24 L 744.29 643.22 L 735.45 657.42 L 728.55 658.69 L 728.61 653.63 L 731.99 644.76 L 735.59 641.22 L 729.12 631.63 L 724.07 623.29 L 717.20 621.23 L 712.31 614.09 L 701.67 611.08 L 694.51 604.43 L 682.26 603.36 L 669.32 595.89 L 654.18 585.12 L 642.92 575.59 L 637.76 559.23 L 629.52 557.31 L 616.05 551.85 L 608.43 554.08 L 598.86 561.76 L 591.98 562.97 L 593.88 555.79 L 584.90 553.69 L 580.64 540.89 L 586.38 535.85 L 581.51 529.64 L 582.19 524.96 L 589.31 528.51 L 597.29 527.72 L 606.58 522.11 L 609.44 524.73 L 617.33 524.21 L 620.92 517.53 L 633.17 519.61 L 640.46 516.82 L 641.77 510.03 Z M 713.27 654.80 L 725.84 653.36 L 719.88 666.38 L 722.35 671.51 L 718.88 680.01 L 706.22 673.78 L 697.80 672.00 L 674.69 663.59 L 677.01 655.09 L 696.38 656.60 L 713.27 654.80 Z M 613.09 609.20 L 621.37 604.07 L 631.30 615.82 L 628.97 637.70 L 621.45 636.66 L 614.69 642.18 L 608.42 637.79 L 607.76 617.83 L 603.98 608.37 L 613.09 609.20 Z"/>
<path id="country-birlesik-krallik" class="map-country-svg" data-country="Birleşik Krallık" data-capital="Londra" d="M 366.28 394.65 L 353.77 391.24 L 343.53 391.46 L 346.94 382.60 L 343.53 373.73 L 357.41 373.05 L 375.15 383.28 L 366.28 394.65 Z M 417.67 402.31 L 417.70 402.31 L 420.13 392.70 L 409.05 382.51 L 408.79 382.28 L 388.69 379.37 L 384.74 374.89 L 390.76 367.50 L 385.32 362.94 L 376.40 370.76 L 375.43 354.81 L 367.07 346.38 L 373.08 329.27 L 385.95 315.85 L 399.17 317.16 L 419.14 315.77 L 401.44 333.67 L 418.31 331.40 L 436.45 331.49 L 432.14 344.97 L 417.25 359.80 L 434.37 360.85 L 435.68 362.59 L 450.43 382.11 L 461.76 384.77 L 471.95 403.62 L 476.67 410.16 L 496.73 413.31 L 494.72 423.89 L 486.28 428.74 L 492.89 437.30 L 478.00 445.97 L 455.85 445.81 L 427.67 450.36 L 419.95 447.11 L 409.00 454.86 L 393.69 452.98 L 382.05 459.30 L 373.25 455.99 L 397.53 438.62 L 412.35 435.04 L 412.22 435.03 L 386.37 432.27 L 381.69 425.69 L 398.99 420.56 L 389.92 411.65 L 393.06 400.81 L 417.67 402.31 Z"/>
<path id="country-yugoslavya" class="map-country-svg" data-country="Yugoslavya" data-capital="Belgrad" d="M 848.88 601.95 L 845.72 602.50 L 843.00 605.39 L 834.03 605.07 L 827.72 608.68 L 816.89 610.15 L 810.02 606.12 L 807.67 599.02 L 809.77 593.39 L 809.77 593.39 L 808.66 587.40 L 804.70 585.70 L 801.17 581.26 L 796.72 582.73 L 795.66 579.61 L 788.49 587.76 L 789.60 593.03 L 786.13 591.74 L 781.49 586.34 L 774.34 583.06 L 774.34 583.06 L 758.78 576.94 L 749.17 570.98 L 734.03 566.06 L 720.11 553.89 L 723.45 552.65 L 715.90 545.69 L 715.59 540.11 L 704.95 537.50 L 699.88 544.64 L 694.99 539.10 L 695.36 533.35 L 695.95 533.09 L 699.63 531.59 L 695.67 524.54 L 697.46 516.39 L 711.14 517.67 L 719.49 513.92 L 733.97 513.51 L 737.13 510.72 L 739.91 510.90 L 743.13 516.48 L 748.39 518.52 L 760.76 525.62 L 774.44 528.80 L 780.63 526.33 L 780.63 526.33 L 793.31 521.98 L 803.65 522.71 L 812.62 529.21 L 814.47 534.47 L 824.56 538.37 L 825.86 545.19 L 835.51 549.99 L 840.71 546.29 L 844.79 548.35 L 840.96 551.14 L 843.99 554.02 L 839.91 557.78 L 841.39 563.82 L 849.44 570.96 L 843.12 576.13 L 840.34 581.40 L 842.13 583.37 L 839.41 585.70 L 847.70 591.01 L 848.88 601.95 Z"/>
<path id="country-romanya" class="map-country-svg" data-country="Romanya" data-capital="Bükreş" d="M 936.31 533.28 L 943.70 536.33 L 951.48 533.67 L 958.99 536.51 L 959.37 540.78 L 951.34 544.34 L 946.32 542.79 L 941.68 562.75 L 931.95 561.01 L 919.90 555.00 L 900.41 558.84 L 892.20 563.06 L 867.89 562.19 L 855.17 559.61 L 848.75 560.82 L 843.99 554.02 L 840.96 551.14 L 844.79 548.35 L 840.71 546.29 L 835.51 549.99 L 825.86 545.19 L 824.56 538.37 L 814.47 534.47 L 812.62 529.21 L 803.65 522.71 L 816.92 519.59 L 826.93 508.37 L 834.76 497.15 L 844.87 493.68 L 852.02 490.13 L 862.26 491.97 L 872.88 492.03 L 880.56 496.07 L 886.22 493.53 L 898.44 491.94 L 902.60 488.07 L 909.59 488.08 L 914.63 489.69 L 919.76 494.59 L 925.01 501.57 L 934.56 511.41 L 935.09 518.67 L 933.35 525.74 L 936.31 533.28 Z"/>
<path id="country-oman" class="map-country-svg" data-country="Oman" data-capital="—" d="M 1382.89 910.19 L 1383.33 903.53 L 1388.15 896.68 L 1388.20 889.92 L 1395.69 886.66 L 1392.76 884.36 L 1394.12 873.58 L 1402.57 873.52 L 1409.99 884.82 L 1419.23 890.83 L 1431.38 892.99 L 1441.18 896.00 L 1448.65 905.49 L 1453.12 910.98 L 1459.04 913.08 L 1459.01 916.77 L 1452.99 926.63 L 1450.34 931.28 L 1443.37 936.57 L 1437.19 947.90 L 1429.68 947.03 L 1426.24 950.98 L 1423.58 959.37 L 1425.61 970.43 L 1424.05 972.46 L 1416.43 972.41 L 1406.09 978.59 L 1404.48 986.65 L 1400.69 990.14 L 1390.40 990.01 L 1383.91 994.17 L 1384.00 1000.86 L 1375.98 1005.45 L 1366.85 1003.89 L 1355.78 1009.47 L 1348.13 1010.41 L 1342.73 998.85 L 1329.78 971.55 L 1379.44 955.00 L 1390.48 921.91 L 1382.89 910.19 Z M 1400.32 860.45 L 1397.17 854.81 L 1401.99 849.18 L 1404.04 850.61 L 1402.48 857.45 L 1400.32 860.45 Z"/>
<path id="country-izlanda" class="map-country-svg" data-country="İzlanda" data-capital="—" d="M 228.69 186.37 L 224.87 197.07 L 243.57 208.36 L 222.05 220.98 L 174.29 232.32 L 160.02 235.33 L 138.23 232.90 L 92.04 227.66 L 108.33 220.35 L 72.30 212.26 L 101.61 209.05 L 100.90 204.19 L 66.16 200.34 L 77.34 189.57 L 102.43 187.12 L 128.24 198.34 L 153.39 189.33 L 174.22 194.01 L 201.22 185.19 L 228.69 186.37 Z"/>
<path id="country-suriye" class="map-country-svg" data-country="Suriye" data-capital="Şam" d="M 1060.25 744.72 L 1059.94 744.61 L 1062.18 742.09 L 1061.93 735.32 L 1065.99 726.26 L 1075.02 720.02 L 1072.31 713.54 L 1064.86 712.69 L 1063.32 700.03 L 1067.37 693.23 L 1071.80 689.60 L 1076.24 685.98 L 1077.13 676.75 L 1082.55 679.96 L 1100.78 675.36 L 1109.59 678.48 L 1123.21 678.43 L 1142.26 672.22 L 1151.18 672.50 L 1170.01 669.92 L 1161.52 680.25 L 1152.46 684.34 L 1154.02 696.42 L 1147.77 716.42 L 1111.12 733.64 L 1078.70 751.28 L 1060.25 744.72 Z"/>
<path id="country-cekoslovakya" class="map-country-svg" data-country="Çekoslovakya" data-capital="Prag" d="M 837.76 478.07 L 834.53 484.74 L 831.00 486.43 L 813.27 481.41 L 807.84 482.41 L 803.96 486.31 L 796.18 488.37 L 794.39 487.32 L 786.33 489.88 L 779.75 490.37 L 778.42 493.70 L 764.52 495.72 L 758.42 493.92 L 750.00 489.68 L 748.35 483.95 L 749.68 481.85 L 742.04 478.73 L 734.27 479.58 L 721.42 474.54 L 715.59 475.77 L 706.28 482.54 L 693.98 477.21 L 684.63 470.10 L 676.18 466.12 L 674.43 459.15 L 671.53 454.23 L 683.56 450.63 L 689.71 446.50 L 701.60 443.30 L 705.75 440.15 L 710.12 442.05 L 717.50 440.33 L 725.35 445.65 L 737.73 447.09 L 736.70 451.64 L 745.69 455.07 L 748.16 450.79 L 759.51 452.64 L 761.09 457.83 L 773.39 458.82 L 781.01 466.97 L 781.95 467.97 L 788.75 465.72 L 797.10 471.59 L 806.88 468.04 L 814.70 469.74 L 826.62 467.40 L 842.35 473.76 L 837.76 478.07 Z"/>
<path id="country-tunus" class="map-country-svg" data-country="Tunus" data-capital="Tunus" d="M 625.87 784.46 L 618.81 754.76 L 608.60 748.08 L 608.46 744.07 L 594.92 734.22 L 593.46 721.75 L 603.67 712.52 L 607.56 698.88 L 604.94 683.11 L 608.30 674.61 L 626.33 667.94 L 637.92 669.92 L 637.44 678.29 L 651.48 672.20 L 652.66 675.38 L 644.38 683.49 L 644.27 691.14 L 650.00 695.25 L 647.82 709.57 L 636.92 717.89 L 640.07 726.91 L 648.63 727.19 L 652.80 735.06 L 659.09 737.64 L 658.16 750.35 L 650.09 755.10 L 644.99 760.40 L 633.62 766.78 L 635.38 773.63 L 633.95 780.62 L 625.87 784.46 Z"/>
<path id="country-yunanistan" class="map-country-svg" data-country="Yunanistan" data-capital="Atina" d="M 904.13 701.85 L 902.06 706.74 L 878.22 708.14 L 878.39 705.41 L 858.19 702.19 L 861.26 695.15 L 870.31 700.73 L 883.19 699.79 L 895.51 700.96 L 895.11 703.84 L 904.13 701.85 Z M 848.88 601.95 L 861.12 602.43 L 874.38 597.88 L 886.04 603.67 L 901.09 602.10 L 901.27 593.86 L 909.34 598.25 L 904.21 608.60 L 900.28 610.46 L 890.19 609.99 L 881.55 608.42 L 861.50 612.72 L 872.98 622.02 L 864.57 624.72 L 855.35 624.74 L 846.59 616.22 L 843.48 619.85 L 847.18 629.73 L 855.46 637.49 L 849.22 641.12 L 858.44 648.74 L 866.64 653.54 L 866.88 662.89 L 851.57 658.51 L 856.45 666.94 L 845.94 668.68 L 852.22 683.28 L 841.22 683.49 L 827.65 676.29 L 821.44 663.06 L 818.54 652.05 L 812.09 644.44 L 803.60 635.01 L 802.48 630.30 L 810.18 622.27 L 811.17 616.89 L 816.56 614.49 L 816.89 610.15 L 827.72 608.68 L 834.03 605.07 L 843.00 605.39 L 845.72 602.50 L 848.88 601.95 Z"/>
<path id="country-bulgaristan" class="map-country-svg" data-country="Bulgaristan" data-capital="Sofya" d="M 843.99 554.02 L 848.75 560.82 L 855.17 559.61 L 867.89 562.19 L 892.20 563.06 L 900.41 558.84 L 919.90 555.00 L 931.95 561.01 L 941.68 562.75 L 933.09 569.60 L 927.05 581.44 L 932.39 590.88 L 918.14 588.66 L 901.27 593.86 L 901.09 602.10 L 886.04 603.67 L 874.38 597.88 L 861.12 602.43 L 848.88 601.95 L 847.70 591.01 L 839.41 585.70 L 842.13 583.37 L 840.34 581.40 L 843.12 576.13 L 849.44 570.96 L 841.39 563.82 L 839.91 557.78 L 843.99 554.02 Z"/>
<path id="country-macaristan" class="map-country-svg" data-country="Macaristan" data-capital="Budapeşte" d="M 834.53 484.74 L 843.72 489.24 L 844.87 493.68 L 834.76 497.15 L 826.93 508.37 L 816.92 519.59 L 803.65 522.71 L 793.31 521.98 L 780.63 526.33 L 780.63 526.33 L 774.44 528.80 L 760.76 525.62 L 748.39 518.52 L 743.13 516.48 L 739.91 510.90 L 737.13 510.72 L 742.62 500.06 L 739.42 496.48 L 748.74 496.44 L 750.00 489.68 L 758.42 493.92 L 764.52 495.72 L 778.42 493.70 L 779.75 490.37 L 786.33 489.88 L 794.39 487.32 L 796.18 488.37 L 803.96 486.31 L 807.84 482.41 L 813.27 481.41 L 831.00 486.43 L 834.53 484.74 Z"/>
<path id="country-avusturya" class="map-country-svg" data-country="Avusturya" data-capital="Viyana" d="M 750.00 489.68 L 748.74 496.44 L 739.42 496.48 L 742.62 500.06 L 737.13 510.72 L 733.97 513.51 L 719.49 513.92 L 711.14 517.67 L 697.46 516.39 L 673.79 512.12 L 670.09 506.36 L 653.73 509.24 L 651.80 512.39 L 641.77 510.03 L 633.33 509.58 L 625.84 506.57 L 628.37 502.52 L 627.73 499.59 L 632.72 498.67 L 641.10 503.27 L 643.46 498.90 L 658.06 499.61 L 669.90 496.64 L 677.83 497.15 L 683.00 500.54 L 684.54 497.72 L 682.19 486.94 L 688.14 484.84 L 693.98 477.21 L 706.28 482.54 L 715.59 475.77 L 721.42 474.54 L 734.27 479.58 L 742.04 478.73 L 749.68 481.85 L 748.35 483.95 L 750.00 489.68 Z"/>
<path id="country-portekiz" class="map-country-svg" data-country="Portekiz" data-capital="Lizbon" d="M 319.31 592.98 L 325.32 588.77 L 332.08 586.36 L 336.23 594.46 L 346.01 594.44 L 348.84 592.35 L 358.49 592.93 L 363.11 601.23 L 355.46 605.71 L 355.25 618.62 L 352.56 621.04 L 351.90 628.86 L 344.74 630.22 L 351.38 640.14 L 346.81 651.01 L 352.52 655.93 L 350.24 660.43 L 344.11 666.63 L 345.49 672.11 L 338.83 676.40 L 330.11 674.08 L 321.56 675.90 L 324.09 662.95 L 322.54 652.78 L 315.13 651.25 L 311.17 644.98 L 312.49 634.15 L 319.09 628.14 L 320.26 621.46 L 323.72 611.51 L 323.35 604.50 L 320.04 598.55 L 319.31 592.98 Z"/>
<path id="country-bati-sahra" class="map-country-svg" data-country="Batı Sahra" data-capital="—" d="M 325.43 828.32 L 325.43 829.43 L 325.11 832.63 L 325.07 857.70 L 270.73 856.83 L 271.26 899.17 L 255.75 900.65 L 251.70 909.15 L 254.84 933.04 L 190.01 932.94 L 186.39 938.46 L 187.11 931.47 L 187.40 931.49 L 224.68 930.17 L 226.67 924.21 L 233.45 916.78 L 238.91 893.93 L 261.93 876.08 L 269.71 855.22 L 274.89 854.01 L 280.28 841.11 L 294.21 839.33 L 300.20 841.48 L 307.71 841.48 L 313.05 837.72 L 323.28 837.18 L 322.90 828.32 L 325.43 828.32 Z"/>
<path id="country-urdun" class="map-country-svg" data-country="Ürdün" data-capital="—" d="M 1057.37 749.94 L 1060.25 744.72 L 1078.70 751.28 L 1111.12 733.64 L 1117.79 753.79 L 1114.64 756.29 L 1081.48 764.59 L 1097.98 781.13 L 1092.51 783.94 L 1089.78 789.48 L 1077.15 791.77 L 1073.19 797.73 L 1066.03 802.82 L 1047.61 800.19 L 1047.05 797.80 L 1055.30 771.34 L 1054.92 764.91 L 1057.36 760.05 L 1057.37 749.94 Z"/>
<path id="country-irlanda" class="map-country-svg" data-country="İrlanda" data-capital="Dublin" d="M 366.28 394.65 L 369.01 406.47 L 356.50 421.24 L 327.15 431.02 L 303.71 428.52 L 317.14 411.24 L 308.49 394.42 L 331.01 381.46 L 343.53 373.73 L 346.94 382.60 L 343.53 391.46 L 353.77 391.24 L 366.28 394.65 Z"/>
<path id="country-united-arab-emirates" class="map-country-svg" data-country="United Arab Emirates" data-capital="—" d="M 1322.82 884.76 L 1325.76 883.95 L 1326.37 888.49 L 1339.33 885.88 L 1353.02 886.31 L 1363.02 886.80 L 1374.36 875.62 L 1386.71 865.01 L 1397.17 854.81 L 1400.32 860.45 L 1402.57 873.52 L 1394.12 873.58 L 1392.76 884.36 L 1395.69 886.66 L 1388.20 889.92 L 1388.15 896.68 L 1383.33 903.53 L 1382.89 910.19 L 1379.56 913.69 L 1329.79 905.34 L 1323.45 888.58 L 1322.82 884.76 Z"/>
<path id="country-danimarka" class="map-country-svg" data-country="Danimarka" data-capital="Kopenhag" d="M 633.15 376.19 L 622.56 378.71 L 610.05 376.53 L 603.33 367.34 L 602.82 350.43 L 605.58 345.96 L 610.33 341.00 L 624.92 339.97 L 630.73 335.41 L 644.05 330.74 L 643.49 339.25 L 638.58 344.64 L 640.57 349.27 L 649.55 351.78 L 645.50 358.02 L 640.57 356.22 L 628.65 368.13 L 633.15 376.19 Z M 673.70 357.52 L 678.98 365.82 L 669.05 379.22 L 651.72 369.87 L 649.41 363.00 L 673.70 357.52 Z"/>
<path id="country-isvicre" class="map-country-svg" data-country="İsviçre" data-capital="Bern" d="M 627.73 499.59 L 628.37 502.52 L 625.84 506.57 L 633.33 509.58 L 641.77 510.03 L 640.46 516.82 L 633.17 519.61 L 620.92 517.53 L 617.33 524.21 L 609.44 524.73 L 606.58 522.11 L 597.29 527.72 L 589.31 528.51 L 582.19 524.96 L 576.50 517.71 L 568.60 520.30 L 568.84 512.81 L 580.95 503.51 L 580.42 499.31 L 587.96 500.83 L 592.51 498.00 L 606.59 498.12 L 609.99 494.53 L 627.73 499.59 Z"/>
<path id="country-hollanda" class="map-country-svg" data-country="Hollanda" data-capital="Amsterdam" d="M 583.21 401.02 L 586.30 406.62 L 582.18 421.77 L 577.98 427.99 L 568.03 428.00 L 570.82 445.34 L 561.72 441.47 L 551.24 434.23 L 535.89 437.67 L 523.77 436.37 L 523.77 436.37 L 532.30 431.82 L 546.80 407.48 L 569.45 400.56 L 583.21 401.02 Z"/>
<path id="country-belcika" class="map-country-svg" data-country="Belçika" data-capital="Brüksel" d="M 570.82 445.34 L 568.94 456.52 L 564.62 457.14 L 562.83 466.42 L 548.34 458.88 L 539.85 460.17 L 528.29 452.37 L 520.60 445.72 L 512.90 445.45 L 510.50 439.63 L 523.77 436.37 L 523.77 436.37 L 523.77 436.37 L 535.89 437.67 L 551.24 434.23 L 561.72 441.47 L 570.82 445.34 Z"/>
<path id="country-arnavutluk" class="map-country-svg" data-country="Arnavutluk" data-capital="Tiran" d="M 816.89 610.15 L 816.56 614.49 L 811.17 616.89 L 810.18 622.27 L 802.48 630.30 L 799.67 629.14 L 799.34 625.50 L 790.17 619.94 L 788.73 612.06 L 790.13 600.77 L 792.38 595.63 L 789.60 593.03 L 789.60 593.03 L 788.49 587.76 L 795.66 579.61 L 796.72 582.73 L 801.17 581.26 L 804.70 585.70 L 808.66 587.40 L 809.77 593.39 L 809.77 593.39 L 807.67 599.02 L 810.02 606.12 L 816.89 610.15 Z"/>
<path id="country-filistin" class="map-country-svg" data-country="Filistin" data-capital="—" d="M 1060.25 744.72 L 1057.37 749.94 L 1051.38 747.64 L 1047.91 758.66 L 1052.07 760.52 L 1047.85 762.80 L 1047.13 767.15 L 1054.92 764.91 L 1055.30 771.34 L 1047.05 797.80 L 1045.41 793.50 L 1036.17 769.37 L 1036.17 769.37 L 1036.17 769.37 L 1040.99 763.92 L 1039.86 762.98 L 1044.24 755.25 L 1047.60 742.77 L 1049.96 738.58 L 1050.42 738.41 L 1055.96 738.44 L 1057.49 735.54 L 1061.93 735.32 L 1062.18 742.09 L 1059.94 744.61 L 1060.25 744.72 Z"/>
<path id="country-kuwait" class="map-country-svg" data-country="Kuwait" data-capital="—" d="M 1263.13 789.95 L 1266.59 797.25 L 1265.11 801.02 L 1270.44 813.50 L 1258.74 813.93 L 1254.61 806.05 L 1239.86 804.45 L 1252.01 788.57 L 1263.13 789.95 Z"/>
<path id="country-qatar" class="map-country-svg" data-country="Qatar" data-capital="—" d="M 1310.08 876.33 L 1308.98 864.29 L 1313.44 855.61 L 1317.96 853.83 L 1322.97 859.02 L 1323.27 868.70 L 1319.67 878.44 L 1315.08 879.61 L 1310.08 876.33 Z"/>
<path id="country-lubnan" class="map-country-svg" data-country="Lübnan" data-capital="—" d="M 1061.93 735.32 L 1057.49 735.54 L 1055.96 738.44 L 1050.42 738.41 L 1056.32 724.93 L 1064.55 713.27 L 1064.86 712.69 L 1072.31 713.54 L 1075.02 720.02 L 1065.99 726.26 L 1061.93 735.32 Z"/>
<path id="country-kibris" class="map-country-svg" data-country="Kıbrıs" data-capital="—" d="M 1010.78 704.50 L 1013.89 705.36 L 1018.38 703.95 L 1021.58 704.13 L 1022.77 705.14 L 1023.10 706.81 L 1023.93 706.18 L 1026.40 706.52 L 1029.57 705.27 L 1031.34 705.85 L 1031.86 707.18 L 1014.89 713.90 L 1006.78 711.75 L 1002.92 705.11 L 1010.78 704.50 Z"/>
<path id="country-palestine" class="map-country-svg" data-country="Palestine" data-capital="—" d="M 1054.92 764.91 L 1047.13 767.15 L 1047.85 762.80 L 1052.07 760.52 L 1047.91 758.66 L 1051.38 747.64 L 1057.37 749.94 L 1057.36 760.05 L 1054.92 764.91 Z"/>
<path id="country-n-cyprus" class="map-country-svg" data-country="N. Cyprus" data-capital="—" d="M 1010.78 704.50 L 1011.95 704.41 L 1014.34 700.42 L 1026.27 700.64 L 1041.32 695.71 L 1030.14 702.75 L 1031.34 705.85 L 1029.57 705.27 L 1026.40 706.52 L 1023.93 706.18 L 1023.10 706.81 L 1022.77 705.14 L 1021.58 704.13 L 1018.38 703.95 L 1013.89 705.36 L 1010.78 704.50 Z"/>
<path id="country-luksemburg" class="map-country-svg" data-country="Lüksemburg" data-capital="—" d="M 568.94 456.52 L 572.24 460.25 L 571.31 467.51 L 566.53 467.86 L 562.83 466.42 L 564.62 457.14 L 568.94 456.52 Z"/>
</g>
<script><![CDATA[
(function () {
  const countries = document.querySelectorAll(".map-country-svg");
  countries.forEach((country) => {
    country.addEventListener("click", function () {
      countries.forEach((item) => item.classList.remove("selected-country-svg"));
      this.classList.add("selected-country-svg");

      const detail = {
        country: this.dataset.country || "Bilinmiyor",
        capital: this.dataset.capital || "—",
        id: this.id
      };

      window.dispatchEvent(new CustomEvent("imperaCountrySelected", { detail }));
    });
  });
})();
]]></script>
</svg>
