<svg
    id="imperaEuropeMap"
    xmlns="http://www.w3.org/2000/svg"
    viewBox="0 0 1200 760"
    role="img"
    aria-labelledby="mapTitle mapDescription"
>
    <title id="mapTitle">
        IMPERA Avrupa Siyasi Haritası
    </title>

    <desc id="mapDescription">
        1936 Avrupa, Kuzey Afrika ve çevresini gösteren etkileşimli strateji haritası.
    </desc>

    <defs>

        <linearGradient
            id="oceanGradient"
            x1="0"
            y1="0"
            x2="1"
            y2="1"
        >
            <stop
                offset="0%"
                stop-color="#1b3548"
            />

            <stop
                offset="55%"
                stop-color="#102838"
            />

            <stop
                offset="100%"
                stop-color="#091a26"
            />
        </linearGradient>


        <radialGradient
            id="oceanLight"
            cx="48%"
            cy="42%"
            r="70%"
        >
            <stop
                offset="0%"
                stop-color="#42647a"
                stop-opacity="0.20"
            />

            <stop
                offset="100%"
                stop-color="#07131d"
                stop-opacity="0"
            />
        </radialGradient>


        <linearGradient
            id="landGradient"
            x1="0"
            y1="0"
            x2="1"
            y2="1"
        >
            <stop
                offset="0%"
                stop-color="#516171"
            />

            <stop
                offset="100%"
                stop-color="#2f3d4b"
            />
        </linearGradient>


        <linearGradient
            id="playerGradient"
            x1="0"
            y1="0"
            x2="1"
            y2="1"
        >
            <stop
                offset="0%"
                stop-color="#ddb85c"
            />

            <stop
                offset="100%"
                stop-color="#896522"
            />
        </linearGradient>


        <filter
            id="countryShadow"
            x="-30%"
            y="-30%"
            width="160%"
            height="160%"
        >
            <feDropShadow
                dx="0"
                dy="7"
                stdDeviation="7"
                flood-color="#000000"
                flood-opacity="0.42"
            />
        </filter>


        <filter
            id="selectedGlow"
            x="-50%"
            y="-50%"
            width="200%"
            height="200%"
        >
            <feDropShadow
                dx="0"
                dy="0"
                stdDeviation="8"
                flood-color="#f3d681"
                flood-opacity="0.80"
            />
        </filter>


        <pattern
            id="mapGrid"
            width="48"
            height="48"
            patternUnits="userSpaceOnUse"
        >
            <path
                d="M 48 0 L 0 0 0 48"
                fill="none"
                stroke="#ffffff"
                stroke-opacity="0.035"
                stroke-width="1"
            />
        </pattern>

    </defs>


    <!-- ==================================================
         OKYANUS ARKA PLANI
         ================================================== -->

    <rect
        width="1200"
        height="760"
        fill="url(#oceanGradient)"
    />

    <rect
        width="1200"
        height="760"
        fill="url(#oceanLight)"
    />

    <rect
        width="1200"
        height="760"
        fill="url(#mapGrid)"
    />


    <!-- ==================================================
         DENİZ YAZILARI
         ================================================== -->

    <g
        class="sea-labels"
        fill="#b9d3e2"
        fill-opacity="0.24"
        font-family="Georgia, serif"
        font-size="19"
        font-style="italic"
        letter-spacing="8"
        pointer-events="none"
    >
        <text
            x="92"
            y="378"
            transform="rotate(-11 92 378)"
        >
            ATLAS OKYANUSU
        </text>

        <text
            x="430"
            y="620"
            transform="rotate(-5 430 620)"
        >
            AKDENİZ
        </text>

        <text
            x="825"
            y="480"
            transform="rotate(-4 825 480)"
        >
            KARADENİZ
        </text>

        <text
            x="986"
            y="625"
            transform="rotate(-12 986 625)"
        >
            DOĞU AKDENİZ
        </text>

        <text
            x="305"
            y="187"
            transform="rotate(-8 305 187)"
        >
            KUZEY DENİZİ
        </text>
    </g>


    <!-- ==================================================
         ÜLKE GRUBU
         ================================================== -->

    <g
        id="countriesLayer"
        stroke="#a9bac5"
        stroke-opacity="0.42"
        stroke-width="2"
        stroke-linejoin="round"
        filter="url(#countryShadow)"
    >

        <!-- İRLANDA -->

        <path
            id="country-ireland"
            class="map-country-svg neutral-country-svg"
            data-country="İrlanda"
            data-capital="Dublin"
            data-population="3M"
            data-industry="12"
            d="
                M 191 224
                L 171 209
                L 145 219
                L 133 247
                L 145 275
                L 169 286
                L 190 265
                Z
            "
            fill="url(#landGradient)"
        />


        <!-- BİRLEŞİK KRALLIK -->

        <path
            id="country-united-kingdom"
            class="map-country-svg"
            data-country="İngiltere"
            data-capital="Londra"
            data-population="47M"
            data-industry="86"
            d="
                M 233 151
                L 214 136
                L 194 153
                L 197 180
                L 184 198
                L 197 221
                L 188 248
                L 206 274
                L 232 270
                L 245 240
                L 238 212
                L 251 184
                Z

                M 258 281
                L 240 276
                L 230 294
                L 243 309
                L 261 301
                Z
            "
            fill="url(#landGradient)"
        />


        <!-- PORTEKİZ -->

        <path
            id="country-portugal"
            class="map-country-svg neutral-country-svg"
            data-country="Portekiz"
            data-capital="Lizbon"
            data-population="7M"
            data-industry="13"
            d="
                M 200 477
                L 183 466
                L 172 488
                L 178 528
                L 192 551
                L 208 536
                L 204 502
                Z
            "
            fill="url(#landGradient)"
        />


        <!-- İSPANYA -->

        <path
            id="country-spain"
            class="map-country-svg neutral-country-svg"
            data-country="İspanya"
            data-capital="Madrid"
            data-population="24M"
            data-industry="31"
            d="
                M 213 439
                L 178 451
                L 165 483
                L 179 529
                L 220 553
                L 274 548
                L 315 519
                L 320 477
                L 293 449
                L 252 443
                Z
            "
            fill="url(#landGradient)"
        />


        <!-- FRANSA -->

        <path
            id="country-france"
            class="map-country-svg"
            data-country="Fransa"
            data-capital="Paris"
            data-population="41M"
            data-industry="68"
            d="
                M 283 308
                L 248 327
                L 239 370
                L 258 410
                L 294 440
                L 344 427
                L 373 394
                L 369 348
                L 337 317
                Z
            "
            fill="url(#landGradient)"
        />


        <!-- BELÇİKA -->

        <path
            id="country-belgium"
            class="map-country-svg neutral-country-svg"
            data-country="Belçika"
            data-capital="Brüksel"
            data-population="8M"
            data-industry="24"
            d="
                M 321 290
                L 297 296
                L 290 317
                L 314 329
                L 341 316
                L 343 299
                Z
            "
            fill="url(#landGradient)"
        />


        <!-- HOLLANDA -->

        <path
            id="country-netherlands"
            class="map-country-svg neutral-country-svg"
            data-country="Hollanda"
            data-capital="Amsterdam"
            data-population="8M"
            data-industry="21"
            d="
                M 330 253
                L 307 263
                L 304 291
                L 325 299
                L 345 284
                L 347 260
                Z
            "
            fill="url(#landGradient)"
        />


        <!-- İSVİÇRE -->

        <path
            id="country-switzerland"
            class="map-country-svg neutral-country-svg"
            data-country="İsviçre"
            data-capital="Bern"
            data-population="4M"
            data-industry="14"
            d="
                M 354 402
                L 335 414
                L 341 431
                L 370 435
                L 384 417
                L 373 403
                Z
            "
            fill="url(#landGradient)"
        />


        <!-- ALMANYA -->

        <path
            id="country-germany"
            class="map-country-svg"
            data-country="Almanya"
            data-capital="Berlin"
            data-population="67M"
            data-industry="82"
            d="
                M 374 245
                L 346 261
                L 343 298
                L 367 326
                L 361 365
                L 383 405
                L 425 411
                L 451 382
                L 446 344
                L 466 317
                L 451 279
                L 415 260
                Z
            "
            fill="url(#landGradient)"
        />


        <!-- DANİMARKA -->

        <path
            id="country-denmark"
            class="map-country-svg neutral-country-svg"
            data-country="Danimarka"
            data-capital="Kopenhag"
            data-population="4M"
            data-industry="12"
            d="
                M 389 208
                L 373 218
                L 379 242
                L 399 248
                L 412 231
                L 406 210
                Z
            "
            fill="url(#landGradient)"
        />


        <!-- NORVEÇ -->

        <path
            id="country-norway"
            class="map-country-svg neutral-country-svg"
            data-country="Norveç"
            data-capital="Oslo"
            data-population="3M"
            data-industry="11"
            d="
                M 405 52
                L 377 76
                L 357 112
                L 348 156
                L 359 200
                L 380 210
                L 397 175
                L 407 130
                L 426 94
                L 431 63
                Z
            "
            fill="url(#landGradient)"
        />


        <!-- İSVEÇ -->

        <path
            id="country-sweden"
            class="map-country-svg neutral-country-svg"
            data-country="İsveç"
            data-capital="Stockholm"
            data-population="6M"
            data-industry="18"
            d="
                M 433 64
                L 407 95
                L 397 137
                L 405 185
                L 426 227
                L 454 214
                L 463 168
                L 461 116
                L 451 78
                Z
            "
            fill="url(#landGradient)"
        />


        <!-- FİNLANDİYA -->

        <path
            id="country-finland"
            class="map-country-svg neutral-country-svg"
            data-country="Finlandiya"
            data-capital="Helsinki"
            data-population="4M"
            data-industry="12"
            d="
                M 485 91
                L 459 112
                L 463 160
                L 456 205
                L 478 229
                L 512 213
                L 521 169
                L 514 122
                Z
            "
            fill="url(#landGradient)"
        />


        <!-- POLONYA -->

        <path
            id="country-poland"
            class="map-country-svg neutral-country-svg"
            data-country="Polonya"
            data-capital="Varşova"
            data-population="35M"
            data-industry="38"
            d="
                M 468 277
                L 445 309
                L 453 348
                L 486 368
                L 532 357
                L 548 319
                L 529 286
                L 495 276
                Z
            "
            fill="url(#landGradient)"
        />


        <!-- ÇEKOSLOVAKYA -->

        <path
            id="country-czechoslovakia"
            class="map-country-svg neutral-country-svg"
            data-country="Çekoslovakya"
            data-capital="Prag"
            data-population="15M"
            data-industry="29"
            d="
                M 445 366
                L 417 381
                L 425 407
                L 461 419
                L 498 405
                L 501 382
                L 475 369
                Z
            "
            fill="url(#landGradient)"
        />


        <!-- AVUSTURYA -->

        <path
            id="country-austria"
            class="map-country-svg neutral-country-svg"
            data-country="Avusturya"
            data-capital="Viyana"
            data-population="7M"
            data-industry="17"
            d="
                M 415 412
                L 382 420
                L 382 443
                L 422 454
                L 465 445
                L 470 423
                L 442 411
                Z
            "
            fill="url(#landGradient)"
        />


        <!-- MACARİSTAN -->

        <path
            id="country-hungary"
            class="map-country-svg neutral-country-svg"
            data-country="Macaristan"
            data-capital="Budapeşte"
            data-population="9M"
            data-industry="18"
            d="
                M 474 415
                L 448 440
                L 461 467
                L 502 476
                L 528 452
                L 516 424
                Z
            "
            fill="url(#landGradient)"
        />


        <!-- ROMANYA -->

        <path
            id="country-romania"
            class="map-country-svg neutral-country-svg"
            data-country="Romanya"
            data-capital="Bükreş"
            data-population="19M"
            data-industry="25"
            d="
                M 537 407
                L 506 430
                L 516 469
                L 550 492
                L 594 474
                L 603 435
                L 572 410
                Z
            "
            fill="url(#landGradient)"
        />


        <!-- YUGOSLAVYA -->

        <path
            id="country-yugoslavia"
            class="map-country-svg neutral-country-svg"
            data-country="Yugoslavya"
            data-capital="Belgrad"
            data-population="15M"
            data-industry="19"
            d="
                M 449 461
                L 423 477
                L 430 512
                L 463 542
                L 497 524
                L 506 487
                L 481 466
                Z
            "
            fill="url(#landGradient)"
        />


        <!-- BULGARİSTAN -->

        <path
            id="country-bulgaria"
            class="map-country-svg neutral-country-svg"
            data-country="Bulgaristan"
            data-capital="Sofya"
            data-population="6M"
            data-industry="13"
            d="
                M 510 488
                L 493 516
                L 509 544
                L 554 547
                L 575 522
                L 560 494
                Z
            "
            fill="url(#landGradient)"
        />


        <!-- YUNANİSTAN -->

        <path
            id="country-greece"
            class="map-country-svg neutral-country-svg"
            data-country="Yunanistan"
            data-capital="Atina"
            data-population="7M"
            data-industry="12"
            d="
                M 476 536
                L 458 558
                L 468 591
                L 489 619
                L 505 600
                L 493 574
                L 510 550
                Z
            "
            fill="url(#landGradient)"
        />


        <!-- İTALYA -->

        <path
            id="country-italy"
            class="map-country-svg"
            data-country="İtalya"
            data-capital="Roma"
            data-population="43M"
            data-industry="54"
            d="
                M 381 430
                L 361 446
                L 369 480
                L 393 503
                L 404 537
                L 425 564
                L 444 552
                L 431 522
                L 410 496
                L 401 464
                L 410 443
                Z

                M 439 573
                L 425 581
                L 433 594
                L 448 588
                Z

                M 381 569
                L 360 573
                L 351 591
                L 369 602
                L 389 594
                Z
            "
            fill="url(#landGradient)"
        />


        <!-- TÜRKİYE -->

        <path
            id="country-turkey"
            class="map-country-svg"
            data-country="Türkiye"
            data-capital="Ankara"
            data-population="17M"
            data-industry="32"
            d="
                M 581 520
                L 553 538
                L 563 565
                L 611 578
                L 675 575
                L 728 560
                L 773 570
                L 821 553
                L 812 521
                L 763 506
                L 704 513
                L 653 507
                L 612 514
                Z
            "
            fill="url(#landGradient)"
        />


        <!-- SOVYETLER BİRLİĞİ -->

        <path
            id="country-russia"
            class="map-country-svg"
            data-country="Rusya"
            data-capital="Moskova"
            data-population="168M"
            data-industry="74"
            d="
                M 535 82
                L 579 60
                L 641 71
                L 695 59
                L 754 75
                L 810 61
                L 873 83
                L 932 73
                L 1007 95
                L 1071 131
                L 1118 181
                L 1132 237
                L 1115 287
                L 1070 316
                L 1026 304
                L 978 330
                L 925 315
                L 873 335
                L 817 323
                L 768 339
                L 711 319
                L 660 329
                L 610 302
                L 570 312
                L 534 281
                L 514 231
                L 518 179
                Z
            "
            fill="url(#landGradient)"
        />


        <!-- UKRAYNA -->

        <path
            id="country-ukraine"
            class="map-country-svg neutral-country-svg"
            data-country="Ukrayna"
            data-capital="Kiev"
            data-population="31M"
            data-industry="35"
            d="
                M 570 340
                L 532 354
                L 528 393
                L 558 420
                L 613 423
                L 659 409
                L 677 374
                L 647 345
                L 609 337
                Z
            "
            fill="url(#landGradient)"
        />


        <!-- BELARUS -->

        <path
            id="country-belarus"
            class="map-country-svg neutral-country-svg"
            data-country="Belarus"
            data-capital="Minsk"
            data-population="6M"
            data-industry="17"
            d="
                M 540 278
                L 521 310
                L 535 342
                L 570 350
                L 605 332
                L 606 299
                L 579 281
                Z
            "
            fill="url(#landGradient)"
        />


        <!-- BALTIK BÖLGESİ -->

        <path
            id="country-baltics"
            class="map-country-svg neutral-country-svg"
            data-country="Baltık Devletleri"
            data-capital="Riga"
            data-population="6M"
            data-industry="13"
            d="
                M 517 218
                L 491 231
                L 493 267
                L 519 283
                L 545 268
                L 548 236
                Z
            "
            fill="url(#landGradient)"
        />


        <!-- IRAK -->

        <path
            id="country-iraq"
            class="map-country-svg neutral-country-svg"
            data-country="Irak"
            data-capital="Bağdat"
            data-population="4M"
            data-industry="10"
            d="
                M 817 570
                L 786 594
                L 794 633
                L 839 651
                L 874 627
                L 866 590
                Z
            "
            fill="url(#landGradient)"
        />


        <!-- SURİYE -->

        <path
            id="country-syria"
            class="map-country-svg neutral-country-svg"
            data-country="Suriye"
            data-capital="Şam"
            data-population="3M"
            data-industry="8"
            d="
                M 759 566
                L 731 580
                L 735 611
                L 772 621
                L 801 602
                L 796 576
                Z
            "
            fill="url(#landGradient)"
        />


        <!-- İRAN -->

        <path
            id="country-iran"
            class="map-country-svg neutral-country-svg"
            data-country="İran"
            data-capital="Tahran"
            data-population="15M"
            data-industry="19"
            d="
                M 875 492
                L 828 514
                L 816 558
                L 843 604
                L 895 633
                L 949 613
                L 976 568
                L 959 522
                L 918 499
                Z
            "
            fill="url(#landGradient)"
        />


        <!-- FAS -->

        <path
            id="country-morocco"
            class="map-country-svg neutral-country-svg"
            data-country="Fas"
            data-capital="Rabat"
            data-population="7M"
            data-industry="9"
            d="
                M 190 584
                L 153 597
                L 143 634
                L 171 661
                L 221 655
                L 247 621
                L 229 591
                Z
            "
            fill="url(#landGradient)"
        />


        <!-- CEZAYİR -->

        <path
            id="country-algeria"
            class="map-country-svg neutral-country-svg"
            data-country="Cezayir"
            data-capital="Cezayir"
            data-population="7M"
            data-industry="11"
            d="
                M 254 570
                L 218 595
                L 226 654
                L 278 702
                L 357 694
                L 383 634
                L 354 586
                L 305 571
                Z
            "
            fill="url(#landGradient)"
        />


        <!-- TUNUS -->

        <path
            id="country-tunisia"
            class="map-country-svg neutral-country-svg"
            data-country="Tunus"
            data-capital="Tunus"
            data-population="3M"
            data-industry="8"
            d="
                M 378 574
                L 359 593
                L 367 635
                L 393 653
                L 411 624
                L 405 588
                Z
            "
            fill="url(#landGradient)"
        />


        <!-- LİBYA -->

        <path
            id="country-libya"
            class="map-country-svg neutral-country-svg"
            data-country="Libya"
            data-capital="Trablus"
            data-population="1M"
            data-industry="6"
            d="
                M 410 589
                L 395 637
                L 430 682
                L 503 702
                L 570 683
                L 590 631
                L 548 598
                L 488 591
                Z
            "
            fill="url(#landGradient)"
        />


        <!-- MISIR -->

        <path
            id="country-egypt"
            class="map-country-svg neutral-country-svg"
            data-country="Mısır"
            data-capital="Kahire"
            data-population="16M"
            data-industry="18"
            d="
                M 584 597
                L 560 631
                L 572 681
                L 626 701
                L 677 686
                L 691 637
                L 658 604
                Z
            "
            fill="url(#landGradient)"
        />

    </g>


    <!-- ==================================================
         ÜLKE İSİMLERİ
         ================================================== -->

    <g
        id="countryLabels"
        fill="#f4f2e8"
        font-family="Arial, sans-serif"
        font-weight="700"
        text-anchor="middle"
        pointer-events="none"
    >

        <text
            x="217"
            y="228"
            font-size="16"
        >
            BK
        </text>

        <text
            x="305"
            y="374"
            font-size="18"
        >
            Fransa
        </text>

        <text
            x="407"
            y="334"
            font-size="17"
        >
            Almanya
        </text>

        <text
            x="396"
            y="501"
            font-size="16"
            transform="rotate(64 396 501)"
        >
            İtalya
        </text>

        <text
            x="689"
            y="548"
            font-size="20"
        >
            Türkiye
        </text>

        <text
            x="822"
            y="205"
            font-size="23"
        >
            SSCB
        </text>

        <text
            x="240"
            y="504"
            font-size="16"
        >
            İspanya
        </text>

        <text
            x="495"
            y="326"
            font-size="14"
        >
            Polonya
        </text>

        <text
            x="568"
            y="382"
            font-size="13"
        >
            Ukrayna
        </text>

        <text
            x="330"
            y="646"
            font-size="17"
        >
            Cezayir
        </text>

        <text
            x="497"
            y="648"
            font-size="17"
        >
            Libya
        </text>

        <text
            x="629"
            y="658"
            font-size="17"
        >
            Mısır
        </text>

        <text
            x="904"
            y="562"
            font-size="17"
        >
            İran
        </text>

    </g>


    <!-- ==================================================
         BAŞKENT İŞARETLERİ
         ================================================== -->

    <g
        id="capitalMarkers"
        fill="#f7d981"
        stroke="#211a09"
        stroke-width="1.5"
        pointer-events="none"
    >

        <circle
            cx="250"
            cy="291"
            r="4"
        />

        <circle
            cx="306"
            cy="343"
            r="4"
        />

        <circle
            cx="420"
            cy="316"
            r="4"
        />

        <circle
            cx="396"
            cy="491"
            r="4"
        />

        <circle
            cx="690"
            cy="541"
            r="5"
        />

        <circle
            cx="791"
            cy="220"
            r="5"
        />

        <circle
            cx="253"
            cy="491"
            r="4"
        />

        <circle
            cx="509"
            cy="326"
            r="4"
        />

    </g>


    <!-- ==================================================
         SEÇİLİ ÜLKE İŞARETİ
         ================================================== -->

    <g
        id="selectionMarker"
        pointer-events="none"
        transform="translate(690 505)"
    >
        <circle
            r="15"
            fill="none"
            stroke="#f5d77e"
            stroke-width="3"
            stroke-opacity="0.85"
        />

        <circle
            r="5"
            fill="#f5d77e"
        />
    </g>

</svg>